G04 ================== begin FILE IDENTIFICATION RECORD ==================*
G04 Layout Name:  E:/san4ch/Sant4ch/Board/sanT_4ch.brd*
G04 Film Name:    DRILL_DRAWING*
G04 File Format:  Gerber RS274X*
G04 File Origin:  Cadence Allegro 16.5-P002*
G04 Origin Date:  Sun Jun 18 14:22:40 2017*
G04 *
G04 Layer:  MANUFACTURING/NCLEGEND-1-2*
G04 Layer:  BOARD GEOMETRY/OUTLINE*
G04 *
G04 Offset:    (0.0 0.0)*
G04 Mirror:    No*
G04 Mode:      Positive*
G04 Rotation:  0*
G04 FullContactRelief:  No*
G04 UndefLineWidth:     6.0*
G04 ================== end FILE IDENTIFICATION RECORD ====================*
%FSLAX35Y35*MOIN*%
%IR0*IPPOS*OFA0.00000B0.00000*MIA0B0*SFA1.00000B1.00000*%
%AMMACRO18*
1,1,.006,.0256,0.0*
20,1,.006,.0256,0.0,.025211,-.004445,0.0*
1,1,.006,.025211,-.004445*
20,1,.006,.025211,-.004445,.024056,-.008756,0.0*
1,1,.006,.024056,-.008756*
20,1,.006,.024056,-.008756,.02217,-.0128,0.0*
1,1,.006,.02217,-.0128*
20,1,.006,.02217,-.0128,.019611,-.016455,0.0*
1,1,.006,.019611,-.016455*
20,1,.006,.019611,-.016455,.016455,-.019611,0.0*
1,1,.006,.016455,-.019611*
20,1,.006,.016455,-.019611,.0128,-.02217,0.0*
1,1,.006,.0128,-.02217*
20,1,.006,.0128,-.02217,.008756,-.024056,0.0*
1,1,.006,.008756,-.024056*
20,1,.006,.008756,-.024056,.004445,-.025211,0.0*
1,1,.006,.004445,-.025211*
20,1,.006,.004445,-.025211,0.0,-.0256,0.0*
1,1,.006,0.0,-.0256*
20,1,.006,0.0,-.0256,-.004445,-.025211,0.0*
1,1,.006,-.004445,-.025211*
20,1,.006,-.004445,-.025211,-.008756,-.024056,0.0*
1,1,.006,-.008756,-.024056*
20,1,.006,-.008756,-.024056,-.0128,-.02217,0.0*
1,1,.006,-.0128,-.02217*
20,1,.006,-.0128,-.02217,-.016455,-.019611,0.0*
1,1,.006,-.016455,-.019611*
20,1,.006,-.016455,-.019611,-.019611,-.016455,0.0*
1,1,.006,-.019611,-.016455*
20,1,.006,-.019611,-.016455,-.02217,-.0128,0.0*
1,1,.006,-.02217,-.0128*
20,1,.006,-.02217,-.0128,-.024056,-.008756,0.0*
1,1,.006,-.024056,-.008756*
20,1,.006,-.024056,-.008756,-.025211,-.004445,0.0*
1,1,.006,-.025211,-.004445*
20,1,.006,-.025211,-.004445,-.0256,0.0,0.0*
1,1,.006,-.0256,0.0*
20,1,.006,-.0256,0.0,-.025211,.004445,0.0*
1,1,.006,-.025211,.004445*
20,1,.006,-.025211,.004445,-.024056,.008756,0.0*
1,1,.006,-.024056,.008756*
20,1,.006,-.024056,.008756,-.02217,.0128,0.0*
1,1,.006,-.02217,.0128*
20,1,.006,-.02217,.0128,-.019611,.016455,0.0*
1,1,.006,-.019611,.016455*
20,1,.006,-.019611,.016455,-.016455,.019611,0.0*
1,1,.006,-.016455,.019611*
20,1,.006,-.016455,.019611,-.0128,.02217,0.0*
1,1,.006,-.0128,.02217*
20,1,.006,-.0128,.02217,-.008756,.024056,0.0*
1,1,.006,-.008756,.024056*
20,1,.006,-.008756,.024056,-.004445,.025211,0.0*
1,1,.006,-.004445,.025211*
20,1,.006,-.004445,.025211,0.0,.0256,0.0*
1,1,.006,0.0,.0256*
20,1,.006,0.0,.0256,.004445,.025211,0.0*
1,1,.006,.004445,.025211*
20,1,.006,.004445,.025211,.008756,.024056,0.0*
1,1,.006,.008756,.024056*
20,1,.006,.008756,.024056,.0128,.02217,0.0*
1,1,.006,.0128,.02217*
20,1,.006,.0128,.02217,.016455,.019611,0.0*
1,1,.006,.016455,.019611*
20,1,.006,.016455,.019611,.019611,.016455,0.0*
1,1,.006,.019611,.016455*
20,1,.006,.019611,.016455,.02217,.0128,0.0*
1,1,.006,.02217,.0128*
20,1,.006,.02217,.0128,.024056,.008756,0.0*
1,1,.006,.024056,.008756*
20,1,.006,.024056,.008756,.025211,.004445,0.0*
1,1,.006,.025211,.004445*
20,1,.006,.025211,.004445,.0256,0.0,0.0*
1,1,.006,.0256,0.0*
%
%ADD18MACRO18*%
%AMMACRO11*
1,1,.006,.0618,0.0*
20,1,.006,.0618,0.0,.060861,-.010731,0.0*
1,1,.006,.060861,-.010731*
20,1,.006,.060861,-.010731,.058073,-.021137,0.0*
1,1,.006,.058073,-.021137*
20,1,.006,.058073,-.021137,.05352,-.0309,0.0*
1,1,.006,.05352,-.0309*
20,1,.006,.05352,-.0309,.047342,-.039724,0.0*
1,1,.006,.047342,-.039724*
20,1,.006,.047342,-.039724,.039724,-.047342,0.0*
1,1,.006,.039724,-.047342*
20,1,.006,.039724,-.047342,.0309,-.05352,0.0*
1,1,.006,.0309,-.05352*
20,1,.006,.0309,-.05352,.021137,-.058073,0.0*
1,1,.006,.021137,-.058073*
20,1,.006,.021137,-.058073,.010731,-.060861,0.0*
1,1,.006,.010731,-.060861*
20,1,.006,.010731,-.060861,0.0,-.0618,0.0*
1,1,.006,0.0,-.0618*
20,1,.006,0.0,-.0618,-.010731,-.060861,0.0*
1,1,.006,-.010731,-.060861*
20,1,.006,-.010731,-.060861,-.021137,-.058073,0.0*
1,1,.006,-.021137,-.058073*
20,1,.006,-.021137,-.058073,-.0309,-.05352,0.0*
1,1,.006,-.0309,-.05352*
20,1,.006,-.0309,-.05352,-.039724,-.047342,0.0*
1,1,.006,-.039724,-.047342*
20,1,.006,-.039724,-.047342,-.047342,-.039724,0.0*
1,1,.006,-.047342,-.039724*
20,1,.006,-.047342,-.039724,-.05352,-.0309,0.0*
1,1,.006,-.05352,-.0309*
20,1,.006,-.05352,-.0309,-.058073,-.021137,0.0*
1,1,.006,-.058073,-.021137*
20,1,.006,-.058073,-.021137,-.060861,-.010731,0.0*
1,1,.006,-.060861,-.010731*
20,1,.006,-.060861,-.010731,-.0618,0.0,0.0*
1,1,.006,-.0618,0.0*
20,1,.006,-.0618,0.0,-.060861,.010731,0.0*
1,1,.006,-.060861,.010731*
20,1,.006,-.060861,.010731,-.058073,.021137,0.0*
1,1,.006,-.058073,.021137*
20,1,.006,-.058073,.021137,-.05352,.0309,0.0*
1,1,.006,-.05352,.0309*
20,1,.006,-.05352,.0309,-.047342,.039724,0.0*
1,1,.006,-.047342,.039724*
20,1,.006,-.047342,.039724,-.039724,.047342,0.0*
1,1,.006,-.039724,.047342*
20,1,.006,-.039724,.047342,-.0309,.05352,0.0*
1,1,.006,-.0309,.05352*
20,1,.006,-.0309,.05352,-.021137,.058073,0.0*
1,1,.006,-.021137,.058073*
20,1,.006,-.021137,.058073,-.010731,.060861,0.0*
1,1,.006,-.010731,.060861*
20,1,.006,-.010731,.060861,0.0,.0618,0.0*
1,1,.006,0.0,.0618*
20,1,.006,0.0,.0618,.010731,.060861,0.0*
1,1,.006,.010731,.060861*
20,1,.006,.010731,.060861,.021137,.058073,0.0*
1,1,.006,.021137,.058073*
20,1,.006,.021137,.058073,.0309,.05352,0.0*
1,1,.006,.0309,.05352*
20,1,.006,.0309,.05352,.039724,.047342,0.0*
1,1,.006,.039724,.047342*
20,1,.006,.039724,.047342,.047342,.039724,0.0*
1,1,.006,.047342,.039724*
20,1,.006,.047342,.039724,.05352,.0309,0.0*
1,1,.006,.05352,.0309*
20,1,.006,.05352,.0309,.058073,.021137,0.0*
1,1,.006,.058073,.021137*
20,1,.006,.058073,.021137,.060861,.010731,0.0*
1,1,.006,.060861,.010731*
20,1,.006,.060861,.010731,.0618,0.0,0.0*
1,1,.006,.0618,0.0*
%
%ADD11MACRO11*%
%AMMACRO17*
1,1,.006,.0069,0.0*
20,1,.006,.0069,0.0,.006795,-.001198,0.0*
1,1,.006,.006795,-.001198*
20,1,.006,.006795,-.001198,.006484,-.00236,0.0*
1,1,.006,.006484,-.00236*
20,1,.006,.006484,-.00236,.005976,-.00345,0.0*
1,1,.006,.005976,-.00345*
20,1,.006,.005976,-.00345,.005286,-.004435,0.0*
1,1,.006,.005286,-.004435*
20,1,.006,.005286,-.004435,.004435,-.005286,0.0*
1,1,.006,.004435,-.005286*
20,1,.006,.004435,-.005286,.00345,-.005976,0.0*
1,1,.006,.00345,-.005976*
20,1,.006,.00345,-.005976,.00236,-.006484,0.0*
1,1,.006,.00236,-.006484*
20,1,.006,.00236,-.006484,.001198,-.006795,0.0*
1,1,.006,.001198,-.006795*
20,1,.006,.001198,-.006795,0.0,-.0069,0.0*
1,1,.006,0.0,-.0069*
20,1,.006,0.0,-.0069,-.001198,-.006795,0.0*
1,1,.006,-.001198,-.006795*
20,1,.006,-.001198,-.006795,-.00236,-.006484,0.0*
1,1,.006,-.00236,-.006484*
20,1,.006,-.00236,-.006484,-.00345,-.005976,0.0*
1,1,.006,-.00345,-.005976*
20,1,.006,-.00345,-.005976,-.004435,-.005286,0.0*
1,1,.006,-.004435,-.005286*
20,1,.006,-.004435,-.005286,-.005286,-.004435,0.0*
1,1,.006,-.005286,-.004435*
20,1,.006,-.005286,-.004435,-.005976,-.00345,0.0*
1,1,.006,-.005976,-.00345*
20,1,.006,-.005976,-.00345,-.006484,-.00236,0.0*
1,1,.006,-.006484,-.00236*
20,1,.006,-.006484,-.00236,-.006795,-.001198,0.0*
1,1,.006,-.006795,-.001198*
20,1,.006,-.006795,-.001198,-.0069,0.0,0.0*
1,1,.006,-.0069,0.0*
20,1,.006,-.0069,0.0,-.006795,.001198,0.0*
1,1,.006,-.006795,.001198*
20,1,.006,-.006795,.001198,-.006484,.00236,0.0*
1,1,.006,-.006484,.00236*
20,1,.006,-.006484,.00236,-.005976,.00345,0.0*
1,1,.006,-.005976,.00345*
20,1,.006,-.005976,.00345,-.005286,.004435,0.0*
1,1,.006,-.005286,.004435*
20,1,.006,-.005286,.004435,-.004435,.005286,0.0*
1,1,.006,-.004435,.005286*
20,1,.006,-.004435,.005286,-.00345,.005976,0.0*
1,1,.006,-.00345,.005976*
20,1,.006,-.00345,.005976,-.00236,.006484,0.0*
1,1,.006,-.00236,.006484*
20,1,.006,-.00236,.006484,-.001198,.006795,0.0*
1,1,.006,-.001198,.006795*
20,1,.006,-.001198,.006795,0.0,.0069,0.0*
1,1,.006,0.0,.0069*
20,1,.006,0.0,.0069,.001198,.006795,0.0*
1,1,.006,.001198,.006795*
20,1,.006,.001198,.006795,.00236,.006484,0.0*
1,1,.006,.00236,.006484*
20,1,.006,.00236,.006484,.00345,.005976,0.0*
1,1,.006,.00345,.005976*
20,1,.006,.00345,.005976,.004435,.005286,0.0*
1,1,.006,.004435,.005286*
20,1,.006,.004435,.005286,.005286,.004435,0.0*
1,1,.006,.005286,.004435*
20,1,.006,.005286,.004435,.005976,.00345,0.0*
1,1,.006,.005976,.00345*
20,1,.006,.005976,.00345,.006484,.00236,0.0*
1,1,.006,.006484,.00236*
20,1,.006,.006484,.00236,.006795,.001198,0.0*
1,1,.006,.006795,.001198*
20,1,.006,.006795,.001198,.0069,0.0,0.0*
1,1,.006,.0069,0.0*
%
%ADD17MACRO17*%
%AMMACRO15*
1,1,.006,.0177,0.0*
20,1,.006,.0177,0.0,.017431,-.003074,0.0*
1,1,.006,.017431,-.003074*
20,1,.006,.017431,-.003074,.016633,-.006054,0.0*
1,1,.006,.016633,-.006054*
20,1,.006,.016633,-.006054,.015329,-.00885,0.0*
1,1,.006,.015329,-.00885*
20,1,.006,.015329,-.00885,.013559,-.011377,0.0*
1,1,.006,.013559,-.011377*
20,1,.006,.013559,-.011377,.011377,-.013559,0.0*
1,1,.006,.011377,-.013559*
20,1,.006,.011377,-.013559,.00885,-.015329,0.0*
1,1,.006,.00885,-.015329*
20,1,.006,.00885,-.015329,.006054,-.016633,0.0*
1,1,.006,.006054,-.016633*
20,1,.006,.006054,-.016633,.003074,-.017431,0.0*
1,1,.006,.003074,-.017431*
20,1,.006,.003074,-.017431,0.0,-.0177,0.0*
1,1,.006,0.0,-.0177*
20,1,.006,0.0,-.0177,-.003074,-.017431,0.0*
1,1,.006,-.003074,-.017431*
20,1,.006,-.003074,-.017431,-.006054,-.016633,0.0*
1,1,.006,-.006054,-.016633*
20,1,.006,-.006054,-.016633,-.00885,-.015329,0.0*
1,1,.006,-.00885,-.015329*
20,1,.006,-.00885,-.015329,-.011377,-.013559,0.0*
1,1,.006,-.011377,-.013559*
20,1,.006,-.011377,-.013559,-.013559,-.011377,0.0*
1,1,.006,-.013559,-.011377*
20,1,.006,-.013559,-.011377,-.015329,-.00885,0.0*
1,1,.006,-.015329,-.00885*
20,1,.006,-.015329,-.00885,-.016633,-.006054,0.0*
1,1,.006,-.016633,-.006054*
20,1,.006,-.016633,-.006054,-.017431,-.003074,0.0*
1,1,.006,-.017431,-.003074*
20,1,.006,-.017431,-.003074,-.0177,0.0,0.0*
1,1,.006,-.0177,0.0*
20,1,.006,-.0177,0.0,-.017431,.003074,0.0*
1,1,.006,-.017431,.003074*
20,1,.006,-.017431,.003074,-.016633,.006054,0.0*
1,1,.006,-.016633,.006054*
20,1,.006,-.016633,.006054,-.015329,.00885,0.0*
1,1,.006,-.015329,.00885*
20,1,.006,-.015329,.00885,-.013559,.011377,0.0*
1,1,.006,-.013559,.011377*
20,1,.006,-.013559,.011377,-.011377,.013559,0.0*
1,1,.006,-.011377,.013559*
20,1,.006,-.011377,.013559,-.00885,.015329,0.0*
1,1,.006,-.00885,.015329*
20,1,.006,-.00885,.015329,-.006054,.016633,0.0*
1,1,.006,-.006054,.016633*
20,1,.006,-.006054,.016633,-.003074,.017431,0.0*
1,1,.006,-.003074,.017431*
20,1,.006,-.003074,.017431,0.0,.0177,0.0*
1,1,.006,0.0,.0177*
20,1,.006,0.0,.0177,.003074,.017431,0.0*
1,1,.006,.003074,.017431*
20,1,.006,.003074,.017431,.006054,.016633,0.0*
1,1,.006,.006054,.016633*
20,1,.006,.006054,.016633,.00885,.015329,0.0*
1,1,.006,.00885,.015329*
20,1,.006,.00885,.015329,.011377,.013559,0.0*
1,1,.006,.011377,.013559*
20,1,.006,.011377,.013559,.013559,.011377,0.0*
1,1,.006,.013559,.011377*
20,1,.006,.013559,.011377,.015329,.00885,0.0*
1,1,.006,.015329,.00885*
20,1,.006,.015329,.00885,.016633,.006054,0.0*
1,1,.006,.016633,.006054*
20,1,.006,.016633,.006054,.017431,.003074,0.0*
1,1,.006,.017431,.003074*
20,1,.006,.017431,.003074,.0177,0.0,0.0*
1,1,.006,.0177,0.0*
%
%ADD15MACRO15*%
%AMMACRO19*
1,1,.006,.0236,0.0*
20,1,.006,.0236,0.0,.023241,-.004098,0.0*
1,1,.006,.023241,-.004098*
20,1,.006,.023241,-.004098,.022177,-.008072,0.0*
1,1,.006,.022177,-.008072*
20,1,.006,.022177,-.008072,.020438,-.0118,0.0*
1,1,.006,.020438,-.0118*
20,1,.006,.020438,-.0118,.018079,-.01517,0.0*
1,1,.006,.018079,-.01517*
20,1,.006,.018079,-.01517,.01517,-.018079,0.0*
1,1,.006,.01517,-.018079*
20,1,.006,.01517,-.018079,.0118,-.020438,0.0*
1,1,.006,.0118,-.020438*
20,1,.006,.0118,-.020438,.008072,-.022177,0.0*
1,1,.006,.008072,-.022177*
20,1,.006,.008072,-.022177,.004098,-.023241,0.0*
1,1,.006,.004098,-.023241*
20,1,.006,.004098,-.023241,0.0,-.0236,0.0*
1,1,.006,0.0,-.0236*
20,1,.006,0.0,-.0236,-.004098,-.023241,0.0*
1,1,.006,-.004098,-.023241*
20,1,.006,-.004098,-.023241,-.008072,-.022177,0.0*
1,1,.006,-.008072,-.022177*
20,1,.006,-.008072,-.022177,-.0118,-.020438,0.0*
1,1,.006,-.0118,-.020438*
20,1,.006,-.0118,-.020438,-.01517,-.018079,0.0*
1,1,.006,-.01517,-.018079*
20,1,.006,-.01517,-.018079,-.018079,-.01517,0.0*
1,1,.006,-.018079,-.01517*
20,1,.006,-.018079,-.01517,-.020438,-.0118,0.0*
1,1,.006,-.020438,-.0118*
20,1,.006,-.020438,-.0118,-.022177,-.008072,0.0*
1,1,.006,-.022177,-.008072*
20,1,.006,-.022177,-.008072,-.023241,-.004098,0.0*
1,1,.006,-.023241,-.004098*
20,1,.006,-.023241,-.004098,-.0236,0.0,0.0*
1,1,.006,-.0236,0.0*
20,1,.006,-.0236,0.0,-.023241,.004098,0.0*
1,1,.006,-.023241,.004098*
20,1,.006,-.023241,.004098,-.022177,.008072,0.0*
1,1,.006,-.022177,.008072*
20,1,.006,-.022177,.008072,-.020438,.0118,0.0*
1,1,.006,-.020438,.0118*
20,1,.006,-.020438,.0118,-.018079,.01517,0.0*
1,1,.006,-.018079,.01517*
20,1,.006,-.018079,.01517,-.01517,.018079,0.0*
1,1,.006,-.01517,.018079*
20,1,.006,-.01517,.018079,-.0118,.020438,0.0*
1,1,.006,-.0118,.020438*
20,1,.006,-.0118,.020438,-.008072,.022177,0.0*
1,1,.006,-.008072,.022177*
20,1,.006,-.008072,.022177,-.004098,.023241,0.0*
1,1,.006,-.004098,.023241*
20,1,.006,-.004098,.023241,0.0,.0236,0.0*
1,1,.006,0.0,.0236*
20,1,.006,0.0,.0236,.004098,.023241,0.0*
1,1,.006,.004098,.023241*
20,1,.006,.004098,.023241,.008072,.022177,0.0*
1,1,.006,.008072,.022177*
20,1,.006,.008072,.022177,.0118,.020438,0.0*
1,1,.006,.0118,.020438*
20,1,.006,.0118,.020438,.01517,.018079,0.0*
1,1,.006,.01517,.018079*
20,1,.006,.01517,.018079,.018079,.01517,0.0*
1,1,.006,.018079,.01517*
20,1,.006,.018079,.01517,.020438,.0118,0.0*
1,1,.006,.020438,.0118*
20,1,.006,.020438,.0118,.022177,.008072,0.0*
1,1,.006,.022177,.008072*
20,1,.006,.022177,.008072,.023241,.004098,0.0*
1,1,.006,.023241,.004098*
20,1,.006,.023241,.004098,.0236,0.0,0.0*
1,1,.006,.0236,0.0*
%
%ADD19MACRO19*%
%AMMACRO16*
1,1,.006,.0138,0.0*
20,1,.006,.0138,0.0,.01359,-.002396,0.0*
1,1,.006,.01359,-.002396*
20,1,.006,.01359,-.002396,.012968,-.00472,0.0*
1,1,.006,.012968,-.00472*
20,1,.006,.012968,-.00472,.011951,-.0069,0.0*
1,1,.006,.011951,-.0069*
20,1,.006,.011951,-.0069,.010571,-.00887,0.0*
1,1,.006,.010571,-.00887*
20,1,.006,.010571,-.00887,.00887,-.010571,0.0*
1,1,.006,.00887,-.010571*
20,1,.006,.00887,-.010571,.0069,-.011951,0.0*
1,1,.006,.0069,-.011951*
20,1,.006,.0069,-.011951,.00472,-.012968,0.0*
1,1,.006,.00472,-.012968*
20,1,.006,.00472,-.012968,.002396,-.01359,0.0*
1,1,.006,.002396,-.01359*
20,1,.006,.002396,-.01359,0.0,-.0138,0.0*
1,1,.006,0.0,-.0138*
20,1,.006,0.0,-.0138,-.002396,-.01359,0.0*
1,1,.006,-.002396,-.01359*
20,1,.006,-.002396,-.01359,-.00472,-.012968,0.0*
1,1,.006,-.00472,-.012968*
20,1,.006,-.00472,-.012968,-.0069,-.011951,0.0*
1,1,.006,-.0069,-.011951*
20,1,.006,-.0069,-.011951,-.00887,-.010571,0.0*
1,1,.006,-.00887,-.010571*
20,1,.006,-.00887,-.010571,-.010571,-.00887,0.0*
1,1,.006,-.010571,-.00887*
20,1,.006,-.010571,-.00887,-.011951,-.0069,0.0*
1,1,.006,-.011951,-.0069*
20,1,.006,-.011951,-.0069,-.012968,-.00472,0.0*
1,1,.006,-.012968,-.00472*
20,1,.006,-.012968,-.00472,-.01359,-.002396,0.0*
1,1,.006,-.01359,-.002396*
20,1,.006,-.01359,-.002396,-.0138,0.0,0.0*
1,1,.006,-.0138,0.0*
20,1,.006,-.0138,0.0,-.01359,.002396,0.0*
1,1,.006,-.01359,.002396*
20,1,.006,-.01359,.002396,-.012968,.00472,0.0*
1,1,.006,-.012968,.00472*
20,1,.006,-.012968,.00472,-.011951,.0069,0.0*
1,1,.006,-.011951,.0069*
20,1,.006,-.011951,.0069,-.010571,.00887,0.0*
1,1,.006,-.010571,.00887*
20,1,.006,-.010571,.00887,-.00887,.010571,0.0*
1,1,.006,-.00887,.010571*
20,1,.006,-.00887,.010571,-.0069,.011951,0.0*
1,1,.006,-.0069,.011951*
20,1,.006,-.0069,.011951,-.00472,.012968,0.0*
1,1,.006,-.00472,.012968*
20,1,.006,-.00472,.012968,-.002396,.01359,0.0*
1,1,.006,-.002396,.01359*
20,1,.006,-.002396,.01359,0.0,.0138,0.0*
1,1,.006,0.0,.0138*
20,1,.006,0.0,.0138,.002396,.01359,0.0*
1,1,.006,.002396,.01359*
20,1,.006,.002396,.01359,.00472,.012968,0.0*
1,1,.006,.00472,.012968*
20,1,.006,.00472,.012968,.0069,.011951,0.0*
1,1,.006,.0069,.011951*
20,1,.006,.0069,.011951,.00887,.010571,0.0*
1,1,.006,.00887,.010571*
20,1,.006,.00887,.010571,.010571,.00887,0.0*
1,1,.006,.010571,.00887*
20,1,.006,.010571,.00887,.011951,.0069,0.0*
1,1,.006,.011951,.0069*
20,1,.006,.011951,.0069,.012968,.00472,0.0*
1,1,.006,.012968,.00472*
20,1,.006,.012968,.00472,.01359,.002396,0.0*
1,1,.006,.01359,.002396*
20,1,.006,.01359,.002396,.0138,0.0,0.0*
1,1,.006,.0138,0.0*
%
%ADD16MACRO16*%
%AMMACRO12*
1,1,.006,.02955,0.0*
20,1,.006,.02955,0.0,.029101,-.005131,0.0*
1,1,.006,.029101,-.005131*
20,1,.006,.029101,-.005131,.027768,-.010107,0.0*
1,1,.006,.027768,-.010107*
20,1,.006,.027768,-.010107,.025591,-.014775,0.0*
1,1,.006,.025591,-.014775*
20,1,.006,.025591,-.014775,.022637,-.018994,0.0*
1,1,.006,.022637,-.018994*
20,1,.006,.022637,-.018994,.018994,-.022637,0.0*
1,1,.006,.018994,-.022637*
20,1,.006,.018994,-.022637,.014775,-.025591,0.0*
1,1,.006,.014775,-.025591*
20,1,.006,.014775,-.025591,.010107,-.027768,0.0*
1,1,.006,.010107,-.027768*
20,1,.006,.010107,-.027768,.005131,-.029101,0.0*
1,1,.006,.005131,-.029101*
20,1,.006,.005131,-.029101,0.0,-.02955,0.0*
1,1,.006,0.0,-.02955*
20,1,.006,0.0,-.02955,-.005131,-.029101,0.0*
1,1,.006,-.005131,-.029101*
20,1,.006,-.005131,-.029101,-.010107,-.027768,0.0*
1,1,.006,-.010107,-.027768*
20,1,.006,-.010107,-.027768,-.014775,-.025591,0.0*
1,1,.006,-.014775,-.025591*
20,1,.006,-.014775,-.025591,-.018994,-.022637,0.0*
1,1,.006,-.018994,-.022637*
20,1,.006,-.018994,-.022637,-.022637,-.018994,0.0*
1,1,.006,-.022637,-.018994*
20,1,.006,-.022637,-.018994,-.025591,-.014775,0.0*
1,1,.006,-.025591,-.014775*
20,1,.006,-.025591,-.014775,-.027768,-.010107,0.0*
1,1,.006,-.027768,-.010107*
20,1,.006,-.027768,-.010107,-.029101,-.005131,0.0*
1,1,.006,-.029101,-.005131*
20,1,.006,-.029101,-.005131,-.02955,0.0,0.0*
1,1,.006,-.02955,0.0*
20,1,.006,-.02955,0.0,-.029101,.005131,0.0*
1,1,.006,-.029101,.005131*
20,1,.006,-.029101,.005131,-.027768,.010107,0.0*
1,1,.006,-.027768,.010107*
20,1,.006,-.027768,.010107,-.025591,.014775,0.0*
1,1,.006,-.025591,.014775*
20,1,.006,-.025591,.014775,-.022637,.018994,0.0*
1,1,.006,-.022637,.018994*
20,1,.006,-.022637,.018994,-.018994,.022637,0.0*
1,1,.006,-.018994,.022637*
20,1,.006,-.018994,.022637,-.014775,.025591,0.0*
1,1,.006,-.014775,.025591*
20,1,.006,-.014775,.025591,-.010107,.027768,0.0*
1,1,.006,-.010107,.027768*
20,1,.006,-.010107,.027768,-.005131,.029101,0.0*
1,1,.006,-.005131,.029101*
20,1,.006,-.005131,.029101,0.0,.02955,0.0*
1,1,.006,0.0,.02955*
20,1,.006,0.0,.02955,.005131,.029101,0.0*
1,1,.006,.005131,.029101*
20,1,.006,.005131,.029101,.010107,.027768,0.0*
1,1,.006,.010107,.027768*
20,1,.006,.010107,.027768,.014775,.025591,0.0*
1,1,.006,.014775,.025591*
20,1,.006,.014775,.025591,.018994,.022637,0.0*
1,1,.006,.018994,.022637*
20,1,.006,.018994,.022637,.022637,.018994,0.0*
1,1,.006,.022637,.018994*
20,1,.006,.022637,.018994,.025591,.014775,0.0*
1,1,.006,.025591,.014775*
20,1,.006,.025591,.014775,.027768,.010107,0.0*
1,1,.006,.027768,.010107*
20,1,.006,.027768,.010107,.029101,.005131,0.0*
1,1,.006,.029101,.005131*
20,1,.006,.029101,.005131,.02955,0.0,0.0*
1,1,.006,.02955,0.0*
%
%ADD12MACRO12*%
%AMMACRO10*
1,1,.006,.0197,0.0*
20,1,.006,.0197,0.0,.019401,-.003421,0.0*
1,1,.006,.019401,-.003421*
20,1,.006,.019401,-.003421,.018512,-.006738,0.0*
1,1,.006,.018512,-.006738*
20,1,.006,.018512,-.006738,.017061,-.00985,0.0*
1,1,.006,.017061,-.00985*
20,1,.006,.017061,-.00985,.015091,-.012663,0.0*
1,1,.006,.015091,-.012663*
20,1,.006,.015091,-.012663,.012663,-.015091,0.0*
1,1,.006,.012663,-.015091*
20,1,.006,.012663,-.015091,.00985,-.017061,0.0*
1,1,.006,.00985,-.017061*
20,1,.006,.00985,-.017061,.006738,-.018512,0.0*
1,1,.006,.006738,-.018512*
20,1,.006,.006738,-.018512,.003421,-.019401,0.0*
1,1,.006,.003421,-.019401*
20,1,.006,.003421,-.019401,0.0,-.0197,0.0*
1,1,.006,0.0,-.0197*
20,1,.006,0.0,-.0197,-.003421,-.019401,0.0*
1,1,.006,-.003421,-.019401*
20,1,.006,-.003421,-.019401,-.006738,-.018512,0.0*
1,1,.006,-.006738,-.018512*
20,1,.006,-.006738,-.018512,-.00985,-.017061,0.0*
1,1,.006,-.00985,-.017061*
20,1,.006,-.00985,-.017061,-.012663,-.015091,0.0*
1,1,.006,-.012663,-.015091*
20,1,.006,-.012663,-.015091,-.015091,-.012663,0.0*
1,1,.006,-.015091,-.012663*
20,1,.006,-.015091,-.012663,-.017061,-.00985,0.0*
1,1,.006,-.017061,-.00985*
20,1,.006,-.017061,-.00985,-.018512,-.006738,0.0*
1,1,.006,-.018512,-.006738*
20,1,.006,-.018512,-.006738,-.019401,-.003421,0.0*
1,1,.006,-.019401,-.003421*
20,1,.006,-.019401,-.003421,-.0197,0.0,0.0*
1,1,.006,-.0197,0.0*
20,1,.006,-.0197,0.0,-.019401,.003421,0.0*
1,1,.006,-.019401,.003421*
20,1,.006,-.019401,.003421,-.018512,.006738,0.0*
1,1,.006,-.018512,.006738*
20,1,.006,-.018512,.006738,-.017061,.00985,0.0*
1,1,.006,-.017061,.00985*
20,1,.006,-.017061,.00985,-.015091,.012663,0.0*
1,1,.006,-.015091,.012663*
20,1,.006,-.015091,.012663,-.012663,.015091,0.0*
1,1,.006,-.012663,.015091*
20,1,.006,-.012663,.015091,-.00985,.017061,0.0*
1,1,.006,-.00985,.017061*
20,1,.006,-.00985,.017061,-.006738,.018512,0.0*
1,1,.006,-.006738,.018512*
20,1,.006,-.006738,.018512,-.003421,.019401,0.0*
1,1,.006,-.003421,.019401*
20,1,.006,-.003421,.019401,0.0,.0197,0.0*
1,1,.006,0.0,.0197*
20,1,.006,0.0,.0197,.003421,.019401,0.0*
1,1,.006,.003421,.019401*
20,1,.006,.003421,.019401,.006738,.018512,0.0*
1,1,.006,.006738,.018512*
20,1,.006,.006738,.018512,.00985,.017061,0.0*
1,1,.006,.00985,.017061*
20,1,.006,.00985,.017061,.012663,.015091,0.0*
1,1,.006,.012663,.015091*
20,1,.006,.012663,.015091,.015091,.012663,0.0*
1,1,.006,.015091,.012663*
20,1,.006,.015091,.012663,.017061,.00985,0.0*
1,1,.006,.017061,.00985*
20,1,.006,.017061,.00985,.018512,.006738,0.0*
1,1,.006,.018512,.006738*
20,1,.006,.018512,.006738,.019401,.003421,0.0*
1,1,.006,.019401,.003421*
20,1,.006,.019401,.003421,.0197,0.0,0.0*
1,1,.006,.0197,0.0*
%
%ADD10MACRO10*%
%AMMACRO13*
1,1,.006,.09845,0.0*
20,1,.006,.09845,0.0,.096954,-.017096,0.0*
1,1,.006,.096954,-.017096*
20,1,.006,.096954,-.017096,.092513,-.033672,0.0*
1,1,.006,.092513,-.033672*
20,1,.006,.092513,-.033672,.08526,-.049225,0.0*
1,1,.006,.08526,-.049225*
20,1,.006,.08526,-.049225,.075417,-.063282,0.0*
1,1,.006,.075417,-.063282*
20,1,.006,.075417,-.063282,.063282,-.075417,0.0*
1,1,.006,.063282,-.075417*
20,1,.006,.063282,-.075417,.049225,-.08526,0.0*
1,1,.006,.049225,-.08526*
20,1,.006,.049225,-.08526,.033672,-.092513,0.0*
1,1,.006,.033672,-.092513*
20,1,.006,.033672,-.092513,.017096,-.096954,0.0*
1,1,.006,.017096,-.096954*
20,1,.006,.017096,-.096954,0.0,-.09845,0.0*
1,1,.006,0.0,-.09845*
20,1,.006,0.0,-.09845,-.017096,-.096954,0.0*
1,1,.006,-.017096,-.096954*
20,1,.006,-.017096,-.096954,-.033672,-.092513,0.0*
1,1,.006,-.033672,-.092513*
20,1,.006,-.033672,-.092513,-.049225,-.08526,0.0*
1,1,.006,-.049225,-.08526*
20,1,.006,-.049225,-.08526,-.063282,-.075417,0.0*
1,1,.006,-.063282,-.075417*
20,1,.006,-.063282,-.075417,-.075417,-.063282,0.0*
1,1,.006,-.075417,-.063282*
20,1,.006,-.075417,-.063282,-.08526,-.049225,0.0*
1,1,.006,-.08526,-.049225*
20,1,.006,-.08526,-.049225,-.092513,-.033672,0.0*
1,1,.006,-.092513,-.033672*
20,1,.006,-.092513,-.033672,-.096954,-.017096,0.0*
1,1,.006,-.096954,-.017096*
20,1,.006,-.096954,-.017096,-.09845,0.0,0.0*
1,1,.006,-.09845,0.0*
20,1,.006,-.09845,0.0,-.096954,.017096,0.0*
1,1,.006,-.096954,.017096*
20,1,.006,-.096954,.017096,-.092513,.033672,0.0*
1,1,.006,-.092513,.033672*
20,1,.006,-.092513,.033672,-.08526,.049225,0.0*
1,1,.006,-.08526,.049225*
20,1,.006,-.08526,.049225,-.075417,.063282,0.0*
1,1,.006,-.075417,.063282*
20,1,.006,-.075417,.063282,-.063282,.075417,0.0*
1,1,.006,-.063282,.075417*
20,1,.006,-.063282,.075417,-.049225,.08526,0.0*
1,1,.006,-.049225,.08526*
20,1,.006,-.049225,.08526,-.033672,.092513,0.0*
1,1,.006,-.033672,.092513*
20,1,.006,-.033672,.092513,-.017096,.096954,0.0*
1,1,.006,-.017096,.096954*
20,1,.006,-.017096,.096954,0.0,.09845,0.0*
1,1,.006,0.0,.09845*
20,1,.006,0.0,.09845,.017096,.096954,0.0*
1,1,.006,.017096,.096954*
20,1,.006,.017096,.096954,.033672,.092513,0.0*
1,1,.006,.033672,.092513*
20,1,.006,.033672,.092513,.049225,.08526,0.0*
1,1,.006,.049225,.08526*
20,1,.006,.049225,.08526,.063282,.075417,0.0*
1,1,.006,.063282,.075417*
20,1,.006,.063282,.075417,.075417,.063282,0.0*
1,1,.006,.075417,.063282*
20,1,.006,.075417,.063282,.08526,.049225,0.0*
1,1,.006,.08526,.049225*
20,1,.006,.08526,.049225,.092513,.033672,0.0*
1,1,.006,.092513,.033672*
20,1,.006,.092513,.033672,.096954,.017096,0.0*
1,1,.006,.096954,.017096*
20,1,.006,.096954,.017096,.09845,0.0,0.0*
1,1,.006,.09845,0.0*
%
%ADD13MACRO13*%
%AMMACRO14*
1,1,.006,-.0138,-.0078*
20,1,.006,-.0138,-.0078,-.0138,.0078,0.0*
1,1,.006,-.0138,.0078*
20,1,.006,-.0138,.0078,-.01359,.010196,0.0*
1,1,.006,-.01359,.010196*
20,1,.006,-.01359,.010196,-.012968,.01252,0.0*
1,1,.006,-.012968,.01252*
20,1,.006,-.012968,.01252,-.011951,.0147,0.0*
1,1,.006,-.011951,.0147*
20,1,.006,-.011951,.0147,-.010571,.01667,0.0*
1,1,.006,-.010571,.01667*
20,1,.006,-.010571,.01667,-.00887,.018371,0.0*
1,1,.006,-.00887,.018371*
20,1,.006,-.00887,.018371,-.0069,.019751,0.0*
1,1,.006,-.0069,.019751*
20,1,.006,-.0069,.019751,-.00472,.020768,0.0*
1,1,.006,-.00472,.020768*
20,1,.006,-.00472,.020768,-.002396,.02139,0.0*
1,1,.006,-.002396,.02139*
20,1,.006,-.002396,.02139,0.0,.0216,0.0*
1,1,.006,0.0,.0216*
20,1,.006,0.0,.0216,.002396,.02139,0.0*
1,1,.006,.002396,.02139*
20,1,.006,.002396,.02139,.00472,.020768,0.0*
1,1,.006,.00472,.020768*
20,1,.006,.00472,.020768,.0069,.019751,0.0*
1,1,.006,.0069,.019751*
20,1,.006,.0069,.019751,.00887,.018371,0.0*
1,1,.006,.00887,.018371*
20,1,.006,.00887,.018371,.010571,.01667,0.0*
1,1,.006,.010571,.01667*
20,1,.006,.010571,.01667,.011951,.0147,0.0*
1,1,.006,.011951,.0147*
20,1,.006,.011951,.0147,.012968,.01252,0.0*
1,1,.006,.012968,.01252*
20,1,.006,.012968,.01252,.01359,.010196,0.0*
1,1,.006,.01359,.010196*
20,1,.006,.01359,.010196,.0138,.0078,0.0*
1,1,.006,.0138,.0078*
20,1,.006,.0138,.0078,.0138,-.0078,0.0*
1,1,.006,.0138,-.0078*
20,1,.006,.0138,-.0078,.01359,-.010196,0.0*
1,1,.006,.01359,-.010196*
20,1,.006,.01359,-.010196,.012968,-.01252,0.0*
1,1,.006,.012968,-.01252*
20,1,.006,.012968,-.01252,.011951,-.0147,0.0*
1,1,.006,.011951,-.0147*
20,1,.006,.011951,-.0147,.010571,-.01667,0.0*
1,1,.006,.010571,-.01667*
20,1,.006,.010571,-.01667,.00887,-.018371,0.0*
1,1,.006,.00887,-.018371*
20,1,.006,.00887,-.018371,.0069,-.019751,0.0*
1,1,.006,.0069,-.019751*
20,1,.006,.0069,-.019751,.00472,-.020768,0.0*
1,1,.006,.00472,-.020768*
20,1,.006,.00472,-.020768,.002396,-.02139,0.0*
1,1,.006,.002396,-.02139*
20,1,.006,.002396,-.02139,0.0,-.0216,0.0*
1,1,.006,0.0,-.0216*
20,1,.006,0.0,-.0216,-.002396,-.02139,0.0*
1,1,.006,-.002396,-.02139*
20,1,.006,-.002396,-.02139,-.00472,-.020768,0.0*
1,1,.006,-.00472,-.020768*
20,1,.006,-.00472,-.020768,-.0069,-.019751,0.0*
1,1,.006,-.0069,-.019751*
20,1,.006,-.0069,-.019751,-.00887,-.018371,0.0*
1,1,.006,-.00887,-.018371*
20,1,.006,-.00887,-.018371,-.010571,-.01667,0.0*
1,1,.006,-.010571,-.01667*
20,1,.006,-.010571,-.01667,-.011951,-.0147,0.0*
1,1,.006,-.011951,-.0147*
20,1,.006,-.011951,-.0147,-.012968,-.01252,0.0*
1,1,.006,-.012968,-.01252*
20,1,.006,-.012968,-.01252,-.01359,-.010196,0.0*
1,1,.006,-.01359,-.010196*
20,1,.006,-.01359,-.010196,-.0138,-.0078,0.0*
1,1,.006,-.0138,-.0078*
1,1,.006,-.0069,-.0055*
20,1,.006,-.0069,-.0055,-.0069,-.0069,0.0*
1,1,.006,-.0069,-.0069*
20,1,.006,-.0069,-.0069,-.0046,-.0092,0.0*
1,1,.006,-.0046,-.0092*
20,1,.006,-.0046,-.0092,.0046,-.0092,0.0*
1,1,.006,.0046,-.0092*
20,1,.006,.0046,-.0092,.0069,-.0069,0.0*
1,1,.006,.0069,-.0069*
20,1,.006,.0069,-.0069,.0069,-.0046,0.0*
1,1,.006,.0069,-.0046*
20,1,.006,.0069,-.0046,.0046,-.0023,0.0*
1,1,.006,.0046,-.0023*
20,1,.006,.0046,-.0023,-.0046,-.0023,0.0*
1,1,.006,-.0046,-.0023*
20,1,.006,-.0046,-.0023,-.0069,0.0,0.0*
1,1,.006,-.0069,0.0*
20,1,.006,-.0069,0.0,-.0069,.0023,0.0*
1,1,.006,-.0069,.0023*
20,1,.006,-.0069,.0023,-.0046,.0046,0.0*
1,1,.006,-.0046,.0046*
20,1,.006,-.0046,.0046,.0046,.0046,0.0*
1,1,.006,.0046,.0046*
20,1,.006,.0046,.0046,.0069,.0023,0.0*
1,1,.006,.0069,.0023*
20,1,.006,.0069,.0023,.0069,.0009,0.0*
1,1,.006,.0069,.0009*
1,1,.006,.0023,.0069*
20,1,.006,.0023,.0069,.0023,-.0115,0.0*
1,1,.006,.0023,-.0115*
1,1,.006,-.0023,-.0115*
20,1,.006,-.0023,-.0115,-.0023,.0069,0.0*
1,1,.006,-.0023,.0069*
%
%ADD14MACRO14*%
%ADD20C,.006*%
G75*
%LPD*%
G75*
G54D10*
X-181100Y-67130D03*
Y-49410D03*
Y-28150D03*
Y-10430D03*
Y10830D03*
Y28550D03*
Y49800D03*
Y67520D03*
Y113190D03*
Y130910D03*
X251760Y55210D03*
G54D20*
G01X-177170Y141340D02*
X177170D01*
G02X185040Y133460I-5J-7875D01*
G01Y-129530D01*
G02X173230Y-141340I-11812J2D01*
G01X-173230D01*
G02X-185040Y-129530I2J11812D01*
G01Y133460D01*
G02X-177170Y141340I7875J5D01*
G01X-132280Y-81380D02*
Y-100630D01*
X-120830Y-112090D01*
Y-131690D01*
X-127560D01*
X-127800Y-131460D01*
Y-115280D01*
X-137360Y-105710D01*
Y-81730D01*
X-136650Y-81020D01*
X-132640D01*
X-132280Y-81380D01*
G01X-120080Y-35430D02*
X-110240D01*
Y-21650D01*
X-108270Y-19690D01*
X-96460D01*
X-94490Y-21650D01*
Y-35430D01*
X-84650D01*
Y-17720D01*
X-88580Y-13780D01*
X-116140D01*
X-120080Y-17720D01*
Y-35430D01*
G01X-109250Y-128030D02*
Y-100280D01*
X-99690D01*
Y-128030D01*
X-109250D01*
G01X-89530Y-128270D02*
Y-100040D01*
X-79960D01*
Y-128270D01*
X-89530D01*
G01X-69920Y-128390D02*
Y-100040D01*
X-60000D01*
Y-128390D01*
X-69920D01*
G01X-53150Y-35430D02*
X-43310D01*
Y-21650D01*
X-41340Y-19690D01*
X-29530D01*
X-27560Y-21650D01*
Y-35430D01*
X-17720D01*
Y-17720D01*
X-21650Y-13780D01*
X-49210D01*
X-53150Y-17720D01*
Y-35430D01*
G01X-50550Y-128740D02*
Y-100040D01*
X-40040D01*
Y-128740D01*
X-50550D01*
G01X-30830Y-128980D02*
Y-99690D01*
X-20430D01*
Y-128980D01*
X-30830D01*
G01X-11100Y-129570D02*
Y-99210D01*
X-710D01*
Y-129570D01*
X-11100D01*
G01X8740Y-129330D02*
Y-99450D01*
X19020D01*
Y-129330D01*
X8740D01*
G01X13780Y-35430D02*
X23620D01*
Y-21650D01*
X25590Y-19690D01*
X37400D01*
X39370Y-21650D01*
Y-35430D01*
X49210D01*
Y-17720D01*
X45280Y-13780D01*
X17720D01*
X13780Y-17720D01*
Y-35430D01*
G01X28460Y-129570D02*
Y-99210D01*
X38150D01*
Y-129570D01*
X28460D01*
G01X48190Y-129690D02*
Y-98620D01*
X58110D01*
Y-129690D01*
X48190D01*
G01X67560Y-129920D02*
Y-98390D01*
X77950D01*
Y-129920D01*
X67560D01*
G01X80710Y-35430D02*
X90550D01*
Y-21650D01*
X92520Y-19690D01*
X104330D01*
X106300Y-21650D01*
Y-35430D01*
X116140D01*
Y-17720D01*
X112200Y-13780D01*
X84650D01*
X80710Y-17720D01*
Y-35430D01*
G01X87640Y-129800D02*
Y-98150D01*
X97440D01*
Y-129800D01*
X87640D01*
G01X107500Y-129500D02*
Y-104500D01*
X132000Y-80000D01*
X141500Y-89500D01*
Y-89900D01*
X117400Y-114000D01*
Y-129200D01*
X117100Y-129500D01*
X107500D01*
G01X206800Y-166300D02*
Y239800D01*
X690440D01*
Y-166300D01*
X206800D01*
G01Y-136770D02*
X690440D01*
G01X206800Y-107240D02*
X690440D01*
G01X206800Y-77700D02*
X690440D01*
G01X206800Y-48160D02*
X690440D01*
G01X206800Y-18630D02*
X690440D01*
G01X206800Y10910D02*
X690440D01*
G01X206800Y40440D02*
X690440D01*
G01X206800Y69980D02*
X690440D01*
G01X206800Y99510D02*
X690440D01*
G01X206800Y129050D02*
X690440D01*
G01X206800Y158580D02*
X690440D01*
G01X206800Y186690D02*
X690440D01*
G01X206800Y214800D02*
X690440D01*
G01X217810Y167910D02*
Y180430D01*
X223700D01*
G01X221530Y174380D02*
X217810D01*
G01X231300Y180430D02*
X235010D01*
G01X233150D02*
Y167910D01*
G01X231300D02*
X235010D01*
G01X246480Y174170D02*
X249580D01*
Y170410D01*
X248650Y169160D01*
X247570Y168330D01*
X246020Y167910D01*
X244470Y168330D01*
X243390Y169160D01*
X242460Y170410D01*
X241840Y171870D01*
X241530Y173540D01*
Y175000D01*
X241840Y176260D01*
X242460Y177720D01*
X243390Y178970D01*
X244320Y179800D01*
X245550Y180430D01*
X246640D01*
X247880Y180010D01*
X248810Y179180D01*
G01X254550Y180430D02*
Y171460D01*
X255170Y169580D01*
X256410Y168330D01*
X257950Y167910D01*
X259500Y168330D01*
X260740Y169580D01*
X261360Y171460D01*
Y180430D01*
G01X267260Y167910D02*
Y180430D01*
X271130D01*
X272370Y179800D01*
X273140Y178970D01*
X273450Y177300D01*
X273140Y175630D01*
X272210Y174590D01*
X271130Y173960D01*
X267260D01*
G01X271130D02*
X273450Y167910D01*
G01X285850D02*
X279660D01*
Y180430D01*
X285850D01*
G01X283370Y174380D02*
X279660D01*
G01X290210Y221020D02*
Y233540D01*
X293310D01*
X294540Y232910D01*
X295470Y232080D01*
X296250Y230830D01*
X296870Y229370D01*
X297020Y227280D01*
X296870Y225190D01*
X296250Y223730D01*
X295470Y222480D01*
X294540Y221650D01*
X293310Y221020D01*
X290210D01*
G01X302920D02*
Y233540D01*
X306790D01*
X308030Y232910D01*
X308800Y232080D01*
X309110Y230410D01*
X308800Y228740D01*
X307870Y227700D01*
X306790Y227070D01*
X302920D01*
G01X306790D02*
X309110Y221020D01*
G01X316560Y233540D02*
X320270D01*
G01X318410D02*
Y221020D01*
G01X316560D02*
X320270D01*
G01X327720Y233540D02*
Y221020D01*
X333910D01*
G01X340120Y233540D02*
Y221020D01*
X346310D01*
G01X371420Y232500D02*
X370490Y233120D01*
X369410Y233540D01*
X368170D01*
X366780Y232910D01*
X365690Y231870D01*
X364920Y230620D01*
X364300Y228530D01*
X364140Y226650D01*
X364450Y224780D01*
X364920Y223520D01*
X365850Y222270D01*
X366930Y221440D01*
X368010Y221020D01*
X369100D01*
X370180Y221440D01*
X371110Y222060D01*
X371890Y222900D01*
G01X377160Y221020D02*
Y233540D01*
G01X383670D02*
Y221020D01*
G01Y227280D02*
X377160D01*
G01X388940Y221020D02*
X392810Y233540D01*
X396690Y221020D01*
G01X395290Y225400D02*
X390340D01*
G01X402120Y221020D02*
Y233540D01*
X405990D01*
X407230Y232910D01*
X408000Y232080D01*
X408310Y230410D01*
X408000Y228740D01*
X407070Y227700D01*
X405990Y227070D01*
X402120D01*
G01X405990D02*
X408310Y221020D01*
G01X417610Y233540D02*
Y221020D01*
G01X414050Y233540D02*
X421180D01*
G01X430010Y220600D02*
X429710Y220810D01*
Y221230D01*
X430010Y221440D01*
X430320Y221230D01*
Y220810D01*
X430010Y220600D01*
G01Y226240D02*
X429710Y226450D01*
Y226860D01*
X430010Y227070D01*
X430320Y226860D01*
Y226450D01*
X430010Y226240D01*
G01X454810Y233540D02*
Y221020D01*
G01X451250Y233540D02*
X458380D01*
G01X467210Y221020D02*
X465980Y221230D01*
X464890Y222060D01*
X463960Y223320D01*
X463340Y224780D01*
X463030Y226450D01*
Y228110D01*
X463340Y229780D01*
X463960Y231240D01*
X464890Y232500D01*
X465980Y233330D01*
X467210Y233540D01*
X468450Y233330D01*
X469540Y232500D01*
X470470Y231240D01*
X471090Y229780D01*
X471400Y228110D01*
Y226450D01*
X471090Y224780D01*
X470470Y223320D01*
X469540Y222060D01*
X468450Y221230D01*
X467210Y221020D01*
G01X476520D02*
Y233540D01*
X480230D01*
X481470Y232910D01*
X482400Y231450D01*
X482710Y229780D01*
X482400Y228110D01*
X481630Y226860D01*
X480230Y226240D01*
X476520D01*
G01X504410Y233540D02*
Y221020D01*
G01X502250Y229370D02*
X506580D01*
G01X516810Y221020D02*
X515890Y221230D01*
X514960Y222060D01*
X514340Y223520D01*
X514030Y225190D01*
X514340Y226860D01*
X514960Y228320D01*
X515890Y229160D01*
X516810Y229370D01*
X517740Y229160D01*
X518670Y228320D01*
X519290Y226860D01*
X519450Y225190D01*
X519290Y223520D01*
X518670Y222060D01*
X517740Y221230D01*
X516810Y221020D01*
G01X542850Y227700D02*
X543470Y228320D01*
X543940Y229370D01*
X544250Y230830D01*
X543940Y232080D01*
X543320Y232910D01*
X542230Y233540D01*
X538050D01*
Y221020D01*
X543160D01*
X544250Y221850D01*
X544870Y223110D01*
X545180Y224570D01*
X544870Y226030D01*
X543940Y227280D01*
X542850Y227700D01*
X538050D01*
G01X554010Y221020D02*
X552780Y221230D01*
X551690Y222060D01*
X550760Y223320D01*
X550140Y224780D01*
X549830Y226450D01*
Y228110D01*
X550140Y229780D01*
X550760Y231240D01*
X551690Y232500D01*
X552780Y233330D01*
X554010Y233540D01*
X555250Y233330D01*
X556340Y232500D01*
X557270Y231240D01*
X557890Y229780D01*
X558200Y228110D01*
Y226450D01*
X557890Y224780D01*
X557270Y223320D01*
X556340Y222060D01*
X555250Y221230D01*
X554010Y221020D01*
G01X566410Y233540D02*
Y221020D01*
G01X562850Y233540D02*
X569980D01*
G01X578810D02*
Y221020D01*
G01X575250Y233540D02*
X582380D01*
G01X591210Y221020D02*
X589980Y221230D01*
X588890Y222060D01*
X587960Y223320D01*
X587340Y224780D01*
X587030Y226450D01*
Y228110D01*
X587340Y229780D01*
X587960Y231240D01*
X588890Y232500D01*
X589980Y233330D01*
X591210Y233540D01*
X592450Y233330D01*
X593540Y232500D01*
X594470Y231240D01*
X595090Y229780D01*
X595400Y228110D01*
Y226450D01*
X595090Y224780D01*
X594470Y223320D01*
X593540Y222060D01*
X592450Y221230D01*
X591210Y221020D01*
G01X599590D02*
Y233540D01*
X603610Y223110D01*
X607640Y233540D01*
Y221020D01*
G01X296710Y186690D02*
Y-166300D01*
G01X320740Y196020D02*
X324610Y208540D01*
X328490Y196020D01*
G01X327090Y200400D02*
X322140D01*
G01X333920Y208540D02*
Y196020D01*
X340110D01*
G01X346320Y208540D02*
Y196020D01*
X352510D01*
G01X370810Y208540D02*
Y199570D01*
X371430Y197690D01*
X372670Y196440D01*
X374210Y196020D01*
X375760Y196440D01*
X377000Y197690D01*
X377620Y199570D01*
Y208540D01*
G01X383050Y196020D02*
Y208540D01*
X390180Y196020D01*
Y208540D01*
G01X397160D02*
X400870D01*
G01X399010D02*
Y196020D01*
G01X397160D02*
X400870D01*
G01X411410Y208540D02*
Y196020D01*
G01X407850Y208540D02*
X414980D01*
G01X420560Y197690D02*
X421800Y196650D01*
X423200Y196020D01*
X424430D01*
X425670Y196650D01*
X426600Y197690D01*
X427070Y199150D01*
X426760Y200610D01*
X425980Y201860D01*
X424590Y202700D01*
X422730Y203110D01*
X421650Y203950D01*
X421180Y205410D01*
X421490Y206870D01*
X422270Y207910D01*
X423350Y208540D01*
X424430D01*
X425520Y208120D01*
X426450Y207080D01*
G01X444740Y196020D02*
X448610Y208540D01*
X452490Y196020D01*
G01X451090Y200400D02*
X446140D01*
G01X457920Y196020D02*
Y208540D01*
X461790D01*
X463030Y207910D01*
X463800Y207080D01*
X464110Y205410D01*
X463800Y203740D01*
X462870Y202700D01*
X461790Y202070D01*
X457920D01*
G01X461790D02*
X464110Y196020D01*
G01X476510D02*
X470320D01*
Y208540D01*
X476510D01*
G01X474030Y202490D02*
X470320D01*
G01X496360Y208540D02*
X500070D01*
G01X498210D02*
Y196020D01*
G01X496360D02*
X500070D01*
G01X507050D02*
Y208540D01*
X514180Y196020D01*
Y208540D01*
G01X531390Y196020D02*
Y208540D01*
X535410Y198110D01*
X539440Y208540D01*
Y196020D01*
G01X545960Y208540D02*
X549670D01*
G01X547810D02*
Y196020D01*
G01X545960D02*
X549670D01*
G01X557120Y208540D02*
Y196020D01*
X563310D01*
G01X569360Y197690D02*
X570600Y196650D01*
X572000Y196020D01*
X573230D01*
X574470Y196650D01*
X575400Y197690D01*
X575870Y199150D01*
X575560Y200610D01*
X574780Y201860D01*
X573390Y202700D01*
X571530Y203110D01*
X570450Y203950D01*
X569980Y205410D01*
X570290Y206870D01*
X571070Y207910D01*
X572150Y208540D01*
X573230D01*
X574320Y208120D01*
X575250Y207080D01*
G01X343510Y-157800D02*
Y-145280D01*
X337780Y-154250D01*
X345530D01*
G01X350650Y-155300D02*
X351580Y-156760D01*
X352820Y-157590D01*
X354210Y-157800D01*
X355450Y-157590D01*
X356690Y-156550D01*
X357460Y-155300D01*
X357620Y-154040D01*
X357310Y-152580D01*
X356220Y-151540D01*
X355140Y-151120D01*
X353750D01*
G01X355140D02*
X356070Y-150500D01*
X356840Y-149450D01*
X357150Y-148200D01*
X356840Y-146950D01*
X356070Y-145910D01*
X354670Y-145280D01*
X353280Y-145490D01*
X351890Y-146320D01*
G01X366450Y-158220D02*
X366150Y-158010D01*
Y-157590D01*
X366450Y-157380D01*
X366760Y-157590D01*
Y-158010D01*
X366450Y-158220D01*
G01X375450Y-155300D02*
X376380Y-156760D01*
X377620Y-157590D01*
X379010Y-157800D01*
X380250Y-157590D01*
X381490Y-156550D01*
X382260Y-155300D01*
X382420Y-154040D01*
X382110Y-152580D01*
X381020Y-151540D01*
X379940Y-151120D01*
X378550D01*
G01X379940D02*
X380870Y-150500D01*
X381640Y-149450D01*
X381950Y-148200D01*
X381640Y-146950D01*
X380870Y-145910D01*
X379470Y-145280D01*
X378080Y-145490D01*
X376690Y-146320D01*
G01X388930Y-149450D02*
X393580Y-157800D01*
G01Y-149450D02*
X388930Y-157800D01*
G01X400710Y-147370D02*
X401640Y-146110D01*
X402730Y-145490D01*
X403960Y-145280D01*
X405510Y-145700D01*
X406600Y-146740D01*
X406910Y-147990D01*
X406750Y-149240D01*
X406130Y-150290D01*
X403040Y-152370D01*
X401640Y-153840D01*
X400710Y-155920D01*
X400400Y-157800D01*
X406910D01*
G01X415750D02*
X416050Y-155090D01*
X416520Y-152790D01*
X417140Y-150710D01*
X417910Y-148410D01*
X419150Y-145280D01*
X412960D01*
G01X428450Y-158220D02*
X428150Y-158010D01*
Y-157590D01*
X428450Y-157380D01*
X428760Y-157590D01*
Y-158010D01*
X428450Y-158220D01*
G01X437910Y-152580D02*
X439000Y-151120D01*
X439930Y-150290D01*
X441160Y-149870D01*
X442250Y-150290D01*
X443020Y-151120D01*
X443640Y-152370D01*
X443800Y-153840D01*
X443640Y-155090D01*
X443020Y-156340D01*
X442090Y-157380D01*
X441010Y-157800D01*
X439770Y-157380D01*
X438690Y-156130D01*
X438070Y-154250D01*
X437910Y-152170D01*
X438220Y-149450D01*
X438690Y-147990D01*
X439460Y-146530D01*
X440550Y-145490D01*
X441630Y-145280D01*
X442710Y-145700D01*
X443490Y-146740D01*
G01X366450Y-128260D02*
Y-115740D01*
X364600Y-118240D01*
G01Y-128260D02*
X368310D01*
G01X376220Y-126800D02*
X377310Y-127840D01*
X378550Y-128260D01*
X379780Y-127840D01*
X380870Y-126590D01*
X381640Y-124710D01*
X381950Y-122830D01*
Y-120540D01*
X381640Y-118660D01*
X380870Y-116990D01*
X379940Y-116160D01*
X378850Y-115740D01*
X377620Y-116160D01*
X376690Y-116990D01*
X376070Y-118240D01*
X375760Y-119910D01*
X376070Y-121370D01*
X376840Y-122830D01*
X377770Y-123670D01*
X378850Y-123880D01*
X380090Y-123460D01*
X381020Y-122420D01*
X381950Y-120540D01*
G01X388310Y-123040D02*
X389400Y-121580D01*
X390330Y-120750D01*
X391560Y-120330D01*
X392650Y-120750D01*
X393420Y-121580D01*
X394040Y-122830D01*
X394200Y-124300D01*
X394040Y-125550D01*
X393420Y-126800D01*
X392490Y-127840D01*
X391410Y-128260D01*
X390170Y-127840D01*
X389090Y-126590D01*
X388470Y-124710D01*
X388310Y-122630D01*
X388620Y-119910D01*
X389090Y-118450D01*
X389860Y-116990D01*
X390950Y-115950D01*
X392030Y-115740D01*
X393110Y-116160D01*
X393890Y-117200D01*
G01X403650Y-128680D02*
X403350Y-128470D01*
Y-128050D01*
X403650Y-127840D01*
X403960Y-128050D01*
Y-128470D01*
X403650Y-128680D01*
G01X413420Y-126800D02*
X414510Y-127840D01*
X415750Y-128260D01*
X416980Y-127840D01*
X418070Y-126590D01*
X418840Y-124710D01*
X419150Y-122830D01*
Y-120540D01*
X418840Y-118660D01*
X418070Y-116990D01*
X417140Y-116160D01*
X416050Y-115740D01*
X414820Y-116160D01*
X413890Y-116990D01*
X413270Y-118240D01*
X412960Y-119910D01*
X413270Y-121370D01*
X414040Y-122830D01*
X414970Y-123670D01*
X416050Y-123880D01*
X417290Y-123460D01*
X418220Y-122420D01*
X419150Y-120540D01*
G01X366450Y-98730D02*
Y-86210D01*
X364600Y-88710D01*
G01Y-98730D02*
X368310D01*
G01X375910Y-88300D02*
X376840Y-87040D01*
X377930Y-86420D01*
X379160Y-86210D01*
X380710Y-86630D01*
X381800Y-87670D01*
X382110Y-88920D01*
X381950Y-90170D01*
X381330Y-91220D01*
X378240Y-93300D01*
X376840Y-94770D01*
X375910Y-96850D01*
X375600Y-98730D01*
X382110D01*
G01X387850Y-96230D02*
X388780Y-97690D01*
X390020Y-98520D01*
X391410Y-98730D01*
X392650Y-98520D01*
X393890Y-97480D01*
X394660Y-96230D01*
X394820Y-94970D01*
X394510Y-93510D01*
X393420Y-92470D01*
X392340Y-92050D01*
X390950D01*
G01X392340D02*
X393270Y-91430D01*
X394040Y-90380D01*
X394350Y-89130D01*
X394040Y-87880D01*
X393270Y-86840D01*
X391870Y-86210D01*
X390480Y-86420D01*
X389090Y-87250D01*
G01X403650Y-99150D02*
X403350Y-98940D01*
Y-98520D01*
X403650Y-98310D01*
X403960Y-98520D01*
Y-98940D01*
X403650Y-99150D01*
G01X413110Y-93510D02*
X414200Y-92050D01*
X415130Y-91220D01*
X416360Y-90800D01*
X417450Y-91220D01*
X418220Y-92050D01*
X418840Y-93300D01*
X419000Y-94770D01*
X418840Y-96020D01*
X418220Y-97270D01*
X417290Y-98310D01*
X416210Y-98730D01*
X414970Y-98310D01*
X413890Y-97060D01*
X413270Y-95180D01*
X413110Y-93100D01*
X413420Y-90380D01*
X413890Y-88920D01*
X414660Y-87460D01*
X415750Y-86420D01*
X416830Y-86210D01*
X417910Y-86630D01*
X418690Y-87670D01*
G01X369710Y-58760D02*
X370640Y-57500D01*
X371730Y-56880D01*
X372960Y-56670D01*
X374510Y-57090D01*
X375600Y-58130D01*
X375910Y-59380D01*
X375750Y-60630D01*
X375130Y-61680D01*
X372040Y-63760D01*
X370640Y-65230D01*
X369710Y-67310D01*
X369400Y-69190D01*
X375910D01*
G01X384750D02*
X385050Y-66480D01*
X385520Y-64180D01*
X386140Y-62100D01*
X386910Y-59800D01*
X388150Y-56670D01*
X381960D01*
G01X397450Y-69610D02*
X397150Y-69400D01*
Y-68980D01*
X397450Y-68770D01*
X397760Y-68980D01*
Y-69400D01*
X397450Y-69610D01*
G01X406910Y-63970D02*
X408000Y-62510D01*
X408930Y-61680D01*
X410160Y-61260D01*
X411250Y-61680D01*
X412020Y-62510D01*
X412640Y-63760D01*
X412800Y-65230D01*
X412640Y-66480D01*
X412020Y-67730D01*
X411090Y-68770D01*
X410010Y-69190D01*
X408770Y-68770D01*
X407690Y-67520D01*
X407070Y-65640D01*
X406910Y-63560D01*
X407220Y-60840D01*
X407690Y-59380D01*
X408460Y-57920D01*
X409550Y-56880D01*
X410630Y-56670D01*
X411710Y-57090D01*
X412490Y-58130D01*
G01X369250Y-37780D02*
X370180Y-38830D01*
X371260Y-39450D01*
X372650Y-39660D01*
X374050Y-39240D01*
X375130Y-38410D01*
X375910Y-36950D01*
X376060Y-35280D01*
X375750Y-33610D01*
X374980Y-32570D01*
X373890Y-31730D01*
X372810Y-31520D01*
X371730Y-31730D01*
X370330Y-32570D01*
X370800Y-27140D01*
X374980D01*
G01X382420Y-38200D02*
X383510Y-39240D01*
X384750Y-39660D01*
X385980Y-39240D01*
X387070Y-37990D01*
X387840Y-36110D01*
X388150Y-34230D01*
Y-31940D01*
X387840Y-30060D01*
X387070Y-28390D01*
X386140Y-27560D01*
X385050Y-27140D01*
X383820Y-27560D01*
X382890Y-28390D01*
X382270Y-29640D01*
X381960Y-31310D01*
X382270Y-32770D01*
X383040Y-34230D01*
X383970Y-35070D01*
X385050Y-35280D01*
X386290Y-34860D01*
X387220Y-33820D01*
X388150Y-31940D01*
G01X397450Y-40080D02*
X397150Y-39870D01*
Y-39450D01*
X397450Y-39240D01*
X397760Y-39450D01*
Y-39870D01*
X397450Y-40080D01*
G01X409850Y-39660D02*
Y-27140D01*
X408000Y-29640D01*
G01Y-39660D02*
X411710D01*
G01X369250Y-8240D02*
X370180Y-9290D01*
X371260Y-9910D01*
X372650Y-10120D01*
X374050Y-9700D01*
X375130Y-8870D01*
X375910Y-7410D01*
X376060Y-5740D01*
X375750Y-4070D01*
X374980Y-3030D01*
X373890Y-2190D01*
X372810Y-1980D01*
X371730Y-2190D01*
X370330Y-3030D01*
X370800Y2400D01*
X374980D01*
G01X385050Y-10120D02*
Y2400D01*
X383200Y-100D01*
G01Y-10120D02*
X386910D01*
G01X397450Y-10540D02*
X397150Y-10330D01*
Y-9910D01*
X397450Y-9700D01*
X397760Y-9910D01*
Y-10330D01*
X397450Y-10540D01*
G01X406910Y310D02*
X407840Y1570D01*
X408930Y2190D01*
X410160Y2400D01*
X411710Y1980D01*
X412800Y940D01*
X413110Y-310D01*
X412950Y-1560D01*
X412330Y-2610D01*
X409240Y-4690D01*
X407840Y-6160D01*
X406910Y-8240D01*
X406600Y-10120D01*
X413110D01*
G01X374510Y19410D02*
Y31930D01*
X368780Y22960D01*
X376530D01*
G01X384750Y19410D02*
X385050Y22120D01*
X385520Y24420D01*
X386140Y26500D01*
X386910Y28800D01*
X388150Y31930D01*
X381960D01*
G01X397450Y18990D02*
X397150Y19200D01*
Y19620D01*
X397450Y19830D01*
X397760Y19620D01*
Y19200D01*
X397450Y18990D01*
G01X406910Y29840D02*
X407840Y31100D01*
X408930Y31720D01*
X410160Y31930D01*
X411710Y31510D01*
X412800Y30470D01*
X413110Y29220D01*
X412950Y27970D01*
X412330Y26920D01*
X409240Y24840D01*
X407840Y23370D01*
X406910Y21290D01*
X406600Y19410D01*
X413110D01*
G01X369250Y51450D02*
X370180Y49990D01*
X371420Y49160D01*
X372810Y48950D01*
X374050Y49160D01*
X375290Y50200D01*
X376060Y51450D01*
X376220Y52710D01*
X375910Y54170D01*
X374820Y55210D01*
X373740Y55630D01*
X372350D01*
G01X373740D02*
X374670Y56250D01*
X375440Y57300D01*
X375750Y58550D01*
X375440Y59800D01*
X374670Y60840D01*
X373270Y61470D01*
X371880Y61260D01*
X370490Y60430D01*
G01X382420Y50410D02*
X383510Y49370D01*
X384750Y48950D01*
X385980Y49370D01*
X387070Y50620D01*
X387840Y52500D01*
X388150Y54380D01*
Y56670D01*
X387840Y58550D01*
X387070Y60220D01*
X386140Y61050D01*
X385050Y61470D01*
X383820Y61050D01*
X382890Y60220D01*
X382270Y58970D01*
X381960Y57300D01*
X382270Y55840D01*
X383040Y54380D01*
X383970Y53540D01*
X385050Y53330D01*
X386290Y53750D01*
X387220Y54790D01*
X388150Y56670D01*
G01X397450Y48530D02*
X397150Y48740D01*
Y49160D01*
X397450Y49370D01*
X397760Y49160D01*
Y48740D01*
X397450Y48530D01*
G01X411710Y48950D02*
Y61470D01*
X405980Y52500D01*
X413730D01*
G01X369250Y80980D02*
X370180Y79520D01*
X371420Y78690D01*
X372810Y78480D01*
X374050Y78690D01*
X375290Y79730D01*
X376060Y80980D01*
X376220Y82240D01*
X375910Y83700D01*
X374820Y84740D01*
X373740Y85160D01*
X372350D01*
G01X373740D02*
X374670Y85780D01*
X375440Y86830D01*
X375750Y88080D01*
X375440Y89330D01*
X374670Y90370D01*
X373270Y91000D01*
X371880Y90790D01*
X370490Y89960D01*
G01X381650Y80360D02*
X382580Y79310D01*
X383660Y78690D01*
X385050Y78480D01*
X386450Y78900D01*
X387530Y79730D01*
X388310Y81190D01*
X388460Y82860D01*
X388150Y84530D01*
X387380Y85570D01*
X386290Y86410D01*
X385210Y86620D01*
X384130Y86410D01*
X382730Y85570D01*
X383200Y91000D01*
X387380D01*
G01X397450Y78060D02*
X397150Y78270D01*
Y78690D01*
X397450Y78900D01*
X397760Y78690D01*
Y78270D01*
X397450Y78060D01*
G01X411710Y78480D02*
Y91000D01*
X405980Y82030D01*
X413730D01*
G01X369710Y118450D02*
X370640Y119710D01*
X371730Y120330D01*
X372960Y120540D01*
X374510Y120120D01*
X375600Y119080D01*
X375910Y117830D01*
X375750Y116580D01*
X375130Y115530D01*
X372040Y113450D01*
X370640Y111980D01*
X369710Y109900D01*
X369400Y108020D01*
X375910D01*
G01X384750D02*
X385050Y110730D01*
X385520Y113030D01*
X386140Y115110D01*
X386910Y117410D01*
X388150Y120540D01*
X381960D01*
G01X397450Y107600D02*
X397150Y107810D01*
Y108230D01*
X397450Y108440D01*
X397760Y108230D01*
Y107810D01*
X397450Y107600D01*
G01X406910Y113240D02*
X408000Y114700D01*
X408930Y115530D01*
X410160Y115950D01*
X411250Y115530D01*
X412020Y114700D01*
X412640Y113450D01*
X412800Y111980D01*
X412640Y110730D01*
X412020Y109480D01*
X411090Y108440D01*
X410010Y108020D01*
X408770Y108440D01*
X407690Y109690D01*
X407070Y111570D01*
X406910Y113650D01*
X407220Y116370D01*
X407690Y117830D01*
X408460Y119290D01*
X409550Y120330D01*
X410630Y120540D01*
X411710Y120120D01*
X412490Y119080D01*
G01X372650Y137550D02*
Y150070D01*
X370800Y147570D01*
G01Y137550D02*
X374510D01*
G01X381650Y140050D02*
X382580Y138590D01*
X383820Y137760D01*
X385210Y137550D01*
X386450Y137760D01*
X387690Y138800D01*
X388460Y140050D01*
X388620Y141310D01*
X388310Y142770D01*
X387220Y143810D01*
X386140Y144230D01*
X384750D01*
G01X386140D02*
X387070Y144850D01*
X387840Y145900D01*
X388150Y147150D01*
X387840Y148400D01*
X387070Y149440D01*
X385670Y150070D01*
X384280Y149860D01*
X382890Y149030D01*
G01X397450Y137130D02*
X397150Y137340D01*
Y137760D01*
X397450Y137970D01*
X397760Y137760D01*
Y137340D01*
X397450Y137130D01*
G01X409850Y137550D02*
X410940Y137760D01*
X412180Y138380D01*
X412950Y139430D01*
X413260Y140890D01*
X412950Y142350D01*
X412020Y143600D01*
X410630Y144230D01*
X409080D01*
X408150Y144640D01*
X407380Y145690D01*
X407070Y147150D01*
X407530Y148610D01*
X408620Y149650D01*
X409850Y150070D01*
X411090Y149650D01*
X412180Y148610D01*
X412640Y147150D01*
X412330Y145690D01*
X411560Y144640D01*
X410630Y144230D01*
X409080D01*
X407690Y143600D01*
X406760Y142350D01*
X406450Y140890D01*
X406760Y139430D01*
X407530Y138380D01*
X408770Y137760D01*
X409850Y137550D01*
G01X369400Y169580D02*
X370640Y168540D01*
X372040Y167910D01*
X373270D01*
X374510Y168540D01*
X375440Y169580D01*
X375910Y171040D01*
X375600Y172500D01*
X374820Y173750D01*
X373430Y174590D01*
X371570Y175000D01*
X370490Y175840D01*
X370020Y177300D01*
X370330Y178760D01*
X371110Y179800D01*
X372190Y180430D01*
X373270D01*
X374360Y180010D01*
X375290Y178970D01*
G01X383200Y180430D02*
X386910D01*
G01X385050D02*
Y167910D01*
G01X383200D02*
X386910D01*
G01X394510Y180430D02*
X400400D01*
X394510Y167910D01*
X400400D01*
G01X412950D02*
X406760D01*
Y180430D01*
X412950D01*
G01X410470Y174380D02*
X406760D01*
G01X485820Y186690D02*
Y-166300D01*
G01X490010Y-128260D02*
Y-115740D01*
X497140Y-128260D01*
Y-115740D01*
G01X505970Y-128260D02*
X504740Y-128050D01*
X503650Y-127220D01*
X502720Y-125960D01*
X502100Y-124500D01*
X501790Y-122830D01*
Y-121170D01*
X502100Y-119500D01*
X502720Y-118040D01*
X503650Y-116780D01*
X504740Y-115950D01*
X505970Y-115740D01*
X507210Y-115950D01*
X508300Y-116780D01*
X509230Y-118040D01*
X509850Y-119500D01*
X510160Y-121170D01*
Y-122830D01*
X509850Y-124500D01*
X509230Y-125960D01*
X508300Y-127220D01*
X507210Y-128050D01*
X505970Y-128260D01*
G01X514810D02*
Y-115740D01*
X521940Y-128260D01*
Y-115740D01*
G01X528760Y-124090D02*
X532790D01*
G01X540080Y-128260D02*
Y-115740D01*
X543790D01*
X545030Y-116370D01*
X545960Y-117830D01*
X546270Y-119500D01*
X545960Y-121170D01*
X545190Y-122420D01*
X543790Y-123040D01*
X540080D01*
G01X552480Y-115740D02*
Y-128260D01*
X558670D01*
G01X564100D02*
X567970Y-115740D01*
X571850Y-128260D01*
G01X570450Y-123880D02*
X565500D01*
G01X580370Y-115740D02*
Y-128260D01*
G01X576810Y-115740D02*
X583940D01*
G01X595870Y-128260D02*
X589680D01*
Y-115740D01*
X595870D01*
G01X593390Y-121790D02*
X589680D01*
G01X601770Y-128260D02*
Y-115740D01*
X604870D01*
X606100Y-116370D01*
X607030Y-117200D01*
X607810Y-118450D01*
X608430Y-119910D01*
X608580Y-122000D01*
X608430Y-124090D01*
X607810Y-125550D01*
X607030Y-126800D01*
X606100Y-127630D01*
X604870Y-128260D01*
X601770D01*
G01X490010Y-98730D02*
Y-86210D01*
X497140Y-98730D01*
Y-86210D01*
G01X505970Y-98730D02*
X504740Y-98520D01*
X503650Y-97690D01*
X502720Y-96430D01*
X502100Y-94970D01*
X501790Y-93300D01*
Y-91640D01*
X502100Y-89970D01*
X502720Y-88510D01*
X503650Y-87250D01*
X504740Y-86420D01*
X505970Y-86210D01*
X507210Y-86420D01*
X508300Y-87250D01*
X509230Y-88510D01*
X509850Y-89970D01*
X510160Y-91640D01*
Y-93300D01*
X509850Y-94970D01*
X509230Y-96430D01*
X508300Y-97690D01*
X507210Y-98520D01*
X505970Y-98730D01*
G01X514810D02*
Y-86210D01*
X521940Y-98730D01*
Y-86210D01*
G01X528760Y-94560D02*
X532790D01*
G01X540080Y-98730D02*
Y-86210D01*
X543790D01*
X545030Y-86840D01*
X545960Y-88300D01*
X546270Y-89970D01*
X545960Y-91640D01*
X545190Y-92890D01*
X543790Y-93510D01*
X540080D01*
G01X552480Y-86210D02*
Y-98730D01*
X558670D01*
G01X564100D02*
X567970Y-86210D01*
X571850Y-98730D01*
G01X570450Y-94350D02*
X565500D01*
G01X580370Y-86210D02*
Y-98730D01*
G01X576810Y-86210D02*
X583940D01*
G01X595870Y-98730D02*
X589680D01*
Y-86210D01*
X595870D01*
G01X593390Y-92260D02*
X589680D01*
G01X601770Y-98730D02*
Y-86210D01*
X604870D01*
X606100Y-86840D01*
X607030Y-87670D01*
X607810Y-88920D01*
X608430Y-90380D01*
X608580Y-92470D01*
X608430Y-94560D01*
X607810Y-96020D01*
X607030Y-97270D01*
X606100Y-98100D01*
X604870Y-98730D01*
X601770D01*
G01X490010Y-69190D02*
Y-56670D01*
X497140Y-69190D01*
Y-56670D01*
G01X505970Y-69190D02*
X504740Y-68980D01*
X503650Y-68150D01*
X502720Y-66890D01*
X502100Y-65430D01*
X501790Y-63760D01*
Y-62100D01*
X502100Y-60430D01*
X502720Y-58970D01*
X503650Y-57710D01*
X504740Y-56880D01*
X505970Y-56670D01*
X507210Y-56880D01*
X508300Y-57710D01*
X509230Y-58970D01*
X509850Y-60430D01*
X510160Y-62100D01*
Y-63760D01*
X509850Y-65430D01*
X509230Y-66890D01*
X508300Y-68150D01*
X507210Y-68980D01*
X505970Y-69190D01*
G01X514810D02*
Y-56670D01*
X521940Y-69190D01*
Y-56670D01*
G01X528760Y-65020D02*
X532790D01*
G01X540080Y-69190D02*
Y-56670D01*
X543790D01*
X545030Y-57300D01*
X545960Y-58760D01*
X546270Y-60430D01*
X545960Y-62100D01*
X545190Y-63350D01*
X543790Y-63970D01*
X540080D01*
G01X552480Y-56670D02*
Y-69190D01*
X558670D01*
G01X564100D02*
X567970Y-56670D01*
X571850Y-69190D01*
G01X570450Y-64810D02*
X565500D01*
G01X580370Y-56670D02*
Y-69190D01*
G01X576810Y-56670D02*
X583940D01*
G01X595870Y-69190D02*
X589680D01*
Y-56670D01*
X595870D01*
G01X593390Y-62720D02*
X589680D01*
G01X601770Y-69190D02*
Y-56670D01*
X604870D01*
X606100Y-57300D01*
X607030Y-58130D01*
X607810Y-59380D01*
X608430Y-60840D01*
X608580Y-62930D01*
X608430Y-65020D01*
X607810Y-66480D01*
X607030Y-67730D01*
X606100Y-68560D01*
X604870Y-69190D01*
X601770D01*
G01X515280Y-157800D02*
Y-145280D01*
X518990D01*
X520230Y-145910D01*
X521160Y-147370D01*
X521470Y-149040D01*
X521160Y-150710D01*
X520390Y-151960D01*
X518990Y-152580D01*
X515280D01*
G01X527680Y-145280D02*
Y-157800D01*
X533870D01*
G01X539300D02*
X543170Y-145280D01*
X547050Y-157800D01*
G01X545650Y-153420D02*
X540700D01*
G01X555570Y-145280D02*
Y-157800D01*
G01X552010Y-145280D02*
X559140D01*
G01X571070Y-157800D02*
X564880D01*
Y-145280D01*
X571070D01*
G01X568590Y-151330D02*
X564880D01*
G01X576970Y-157800D02*
Y-145280D01*
X580070D01*
X581300Y-145910D01*
X582230Y-146740D01*
X583010Y-147990D01*
X583630Y-149450D01*
X583780Y-151540D01*
X583630Y-153630D01*
X583010Y-155090D01*
X582230Y-156340D01*
X581300Y-157170D01*
X580070Y-157800D01*
X576970D01*
G01X515280Y-39660D02*
Y-27140D01*
X518990D01*
X520230Y-27770D01*
X521160Y-29230D01*
X521470Y-30900D01*
X521160Y-32570D01*
X520390Y-33820D01*
X518990Y-34440D01*
X515280D01*
G01X527680Y-27140D02*
Y-39660D01*
X533870D01*
G01X539300D02*
X543170Y-27140D01*
X547050Y-39660D01*
G01X545650Y-35280D02*
X540700D01*
G01X555570Y-27140D02*
Y-39660D01*
G01X552010Y-27140D02*
X559140D01*
G01X571070Y-39660D02*
X564880D01*
Y-27140D01*
X571070D01*
G01X568590Y-33190D02*
X564880D01*
G01X576970Y-39660D02*
Y-27140D01*
X580070D01*
X581300Y-27770D01*
X582230Y-28600D01*
X583010Y-29850D01*
X583630Y-31310D01*
X583780Y-33400D01*
X583630Y-35490D01*
X583010Y-36950D01*
X582230Y-38200D01*
X581300Y-39030D01*
X580070Y-39660D01*
X576970D01*
G01X515280Y-10120D02*
Y2400D01*
X518990D01*
X520230Y1770D01*
X521160Y310D01*
X521470Y-1360D01*
X521160Y-3030D01*
X520390Y-4280D01*
X518990Y-4900D01*
X515280D01*
G01X527680Y2400D02*
Y-10120D01*
X533870D01*
G01X539300D02*
X543170Y2400D01*
X547050Y-10120D01*
G01X545650Y-5740D02*
X540700D01*
G01X555570Y2400D02*
Y-10120D01*
G01X552010Y2400D02*
X559140D01*
G01X571070Y-10120D02*
X564880D01*
Y2400D01*
X571070D01*
G01X568590Y-3650D02*
X564880D01*
G01X576970Y-10120D02*
Y2400D01*
X580070D01*
X581300Y1770D01*
X582230Y940D01*
X583010Y-310D01*
X583630Y-1770D01*
X583780Y-3860D01*
X583630Y-5950D01*
X583010Y-7410D01*
X582230Y-8660D01*
X581300Y-9490D01*
X580070Y-10120D01*
X576970D01*
G01X515280Y19410D02*
Y31930D01*
X518990D01*
X520230Y31300D01*
X521160Y29840D01*
X521470Y28170D01*
X521160Y26500D01*
X520390Y25250D01*
X518990Y24630D01*
X515280D01*
G01X527680Y31930D02*
Y19410D01*
X533870D01*
G01X539300D02*
X543170Y31930D01*
X547050Y19410D01*
G01X545650Y23790D02*
X540700D01*
G01X555570Y31930D02*
Y19410D01*
G01X552010Y31930D02*
X559140D01*
G01X571070Y19410D02*
X564880D01*
Y31930D01*
X571070D01*
G01X568590Y25880D02*
X564880D01*
G01X576970Y19410D02*
Y31930D01*
X580070D01*
X581300Y31300D01*
X582230Y30470D01*
X583010Y29220D01*
X583630Y27760D01*
X583780Y25670D01*
X583630Y23580D01*
X583010Y22120D01*
X582230Y20870D01*
X581300Y20040D01*
X580070Y19410D01*
X576970D01*
G01X515280Y48950D02*
Y61470D01*
X518990D01*
X520230Y60840D01*
X521160Y59380D01*
X521470Y57710D01*
X521160Y56040D01*
X520390Y54790D01*
X518990Y54170D01*
X515280D01*
G01X527680Y61470D02*
Y48950D01*
X533870D01*
G01X539300D02*
X543170Y61470D01*
X547050Y48950D01*
G01X545650Y53330D02*
X540700D01*
G01X555570Y61470D02*
Y48950D01*
G01X552010Y61470D02*
X559140D01*
G01X571070Y48950D02*
X564880D01*
Y61470D01*
X571070D01*
G01X568590Y55420D02*
X564880D01*
G01X576970Y48950D02*
Y61470D01*
X580070D01*
X581300Y60840D01*
X582230Y60010D01*
X583010Y58760D01*
X583630Y57300D01*
X583780Y55210D01*
X583630Y53120D01*
X583010Y51660D01*
X582230Y50410D01*
X581300Y49580D01*
X580070Y48950D01*
X576970D01*
G01X515280Y78480D02*
Y91000D01*
X518990D01*
X520230Y90370D01*
X521160Y88910D01*
X521470Y87240D01*
X521160Y85570D01*
X520390Y84320D01*
X518990Y83700D01*
X515280D01*
G01X527680Y91000D02*
Y78480D01*
X533870D01*
G01X539300D02*
X543170Y91000D01*
X547050Y78480D01*
G01X545650Y82860D02*
X540700D01*
G01X555570Y91000D02*
Y78480D01*
G01X552010Y91000D02*
X559140D01*
G01X571070Y78480D02*
X564880D01*
Y91000D01*
X571070D01*
G01X568590Y84950D02*
X564880D01*
G01X576970Y78480D02*
Y91000D01*
X580070D01*
X581300Y90370D01*
X582230Y89540D01*
X583010Y88290D01*
X583630Y86830D01*
X583780Y84740D01*
X583630Y82650D01*
X583010Y81190D01*
X582230Y79940D01*
X581300Y79110D01*
X580070Y78480D01*
X576970D01*
G01X515280Y108020D02*
Y120540D01*
X518990D01*
X520230Y119910D01*
X521160Y118450D01*
X521470Y116780D01*
X521160Y115110D01*
X520390Y113860D01*
X518990Y113240D01*
X515280D01*
G01X527680Y120540D02*
Y108020D01*
X533870D01*
G01X539300D02*
X543170Y120540D01*
X547050Y108020D01*
G01X545650Y112400D02*
X540700D01*
G01X555570Y120540D02*
Y108020D01*
G01X552010Y120540D02*
X559140D01*
G01X571070Y108020D02*
X564880D01*
Y120540D01*
X571070D01*
G01X568590Y114490D02*
X564880D01*
G01X576970Y108020D02*
Y120540D01*
X580070D01*
X581300Y119910D01*
X582230Y119080D01*
X583010Y117830D01*
X583630Y116370D01*
X583780Y114280D01*
X583630Y112190D01*
X583010Y110730D01*
X582230Y109480D01*
X581300Y108650D01*
X580070Y108020D01*
X576970D01*
G01X515280Y137550D02*
Y150070D01*
X518990D01*
X520230Y149440D01*
X521160Y147980D01*
X521470Y146310D01*
X521160Y144640D01*
X520390Y143390D01*
X518990Y142770D01*
X515280D01*
G01X527680Y150070D02*
Y137550D01*
X533870D01*
G01X539300D02*
X543170Y150070D01*
X547050Y137550D01*
G01X545650Y141930D02*
X540700D01*
G01X555570Y150070D02*
Y137550D01*
G01X552010Y150070D02*
X559140D01*
G01X571070Y137550D02*
X564880D01*
Y150070D01*
X571070D01*
G01X568590Y144020D02*
X564880D01*
G01X576970Y137550D02*
Y150070D01*
X580070D01*
X581300Y149440D01*
X582230Y148610D01*
X583010Y147360D01*
X583630Y145900D01*
X583780Y143810D01*
X583630Y141720D01*
X583010Y140260D01*
X582230Y139010D01*
X581300Y138180D01*
X580070Y137550D01*
X576970D01*
G01X515280Y167910D02*
Y180430D01*
X518990D01*
X520230Y179800D01*
X521160Y178340D01*
X521470Y176670D01*
X521160Y175000D01*
X520390Y173750D01*
X518990Y173130D01*
X515280D01*
G01X527680Y180430D02*
Y167910D01*
X533870D01*
G01X539300D02*
X543170Y180430D01*
X547050Y167910D01*
G01X545650Y172290D02*
X540700D01*
G01X555570Y180430D02*
Y167910D01*
G01X552010Y180430D02*
X559140D01*
G01X571070Y167910D02*
X564880D01*
Y180430D01*
X571070D01*
G01X568590Y174380D02*
X564880D01*
G01X576970Y167910D02*
Y180430D01*
X580070D01*
X581300Y179800D01*
X582230Y178970D01*
X583010Y177720D01*
X583630Y176260D01*
X583780Y174170D01*
X583630Y172080D01*
X583010Y170620D01*
X582230Y169370D01*
X581300Y168540D01*
X580070Y167910D01*
X576970D01*
G01X612930Y186690D02*
Y-166300D01*
G01X639270Y167910D02*
X638040Y168120D01*
X636950Y168950D01*
X636020Y170210D01*
X635400Y171670D01*
X635090Y173340D01*
Y175000D01*
X635400Y176670D01*
X636020Y178130D01*
X636950Y179390D01*
X638040Y180220D01*
X639270Y180430D01*
X640510Y180220D01*
X641600Y179390D01*
X642530Y178130D01*
X643150Y176670D01*
X643460Y175000D01*
Y173340D01*
X643150Y171670D01*
X642530Y170210D01*
X641600Y168950D01*
X640510Y168120D01*
X639270Y167910D01*
G01X640510Y171250D02*
X642370Y167910D01*
G01X651670Y180430D02*
Y167910D01*
G01X648110Y180430D02*
X655240D01*
G01X664070Y167910D02*
Y173540D01*
X660980Y180430D01*
G01X667170D02*
X664070Y173540D01*
G01X645470Y-39660D02*
Y-27140D01*
X643620Y-29640D01*
G01Y-39660D02*
X647330D01*
G01X657870Y-27140D02*
X656640Y-27560D01*
X655710Y-28600D01*
X655090Y-29850D01*
X654620Y-31520D01*
X654470Y-33400D01*
X654620Y-35280D01*
X655090Y-36950D01*
X655710Y-38200D01*
X656640Y-39240D01*
X657870Y-39660D01*
X659110Y-39240D01*
X660040Y-38200D01*
X660660Y-36950D01*
X661130Y-35280D01*
X661280Y-33400D01*
X661130Y-31520D01*
X660660Y-29850D01*
X660040Y-28600D01*
X659110Y-27560D01*
X657870Y-27140D01*
G01X642530Y310D02*
X643460Y1570D01*
X644550Y2190D01*
X645780Y2400D01*
X647330Y1980D01*
X648420Y940D01*
X648730Y-310D01*
X648570Y-1560D01*
X647950Y-2610D01*
X644860Y-4690D01*
X643460Y-6160D01*
X642530Y-8240D01*
X642220Y-10120D01*
X648730D01*
G01X657870Y2400D02*
X656640Y1980D01*
X655710Y940D01*
X655090Y-310D01*
X654620Y-1980D01*
X654470Y-3860D01*
X654620Y-5740D01*
X655090Y-7410D01*
X655710Y-8660D01*
X656640Y-9700D01*
X657870Y-10120D01*
X659110Y-9700D01*
X660040Y-8660D01*
X660660Y-7410D01*
X661130Y-5740D01*
X661280Y-3860D01*
X661130Y-1980D01*
X660660Y-310D01*
X660040Y940D01*
X659110Y1980D01*
X657870Y2400D01*
G01X645470Y19410D02*
Y31930D01*
X643620Y29430D01*
G01Y19410D02*
X647330D01*
G01X659730D02*
Y31930D01*
X654000Y22960D01*
X661750D01*
G01X645470Y48950D02*
Y61470D01*
X643620Y58970D01*
G01Y48950D02*
X647330D01*
G01X657870Y61470D02*
X656640Y61050D01*
X655710Y60010D01*
X655090Y58760D01*
X654620Y57090D01*
X654470Y55210D01*
X654620Y53330D01*
X655090Y51660D01*
X655710Y50410D01*
X656640Y49370D01*
X657870Y48950D01*
X659110Y49370D01*
X660040Y50410D01*
X660660Y51660D01*
X661130Y53330D01*
X661280Y55210D01*
X661130Y57090D01*
X660660Y58760D01*
X660040Y60010D01*
X659110Y61050D01*
X657870Y61470D01*
G01X642530Y88910D02*
X643460Y90170D01*
X644550Y90790D01*
X645780Y91000D01*
X647330Y90580D01*
X648420Y89540D01*
X648730Y88290D01*
X648570Y87040D01*
X647950Y85990D01*
X644860Y83910D01*
X643460Y82440D01*
X642530Y80360D01*
X642220Y78480D01*
X648730D01*
G01X657870Y91000D02*
X656640Y90580D01*
X655710Y89540D01*
X655090Y88290D01*
X654620Y86620D01*
X654470Y84740D01*
X654620Y82860D01*
X655090Y81190D01*
X655710Y79940D01*
X656640Y78900D01*
X657870Y78480D01*
X659110Y78900D01*
X660040Y79940D01*
X660660Y81190D01*
X661130Y82860D01*
X661280Y84740D01*
X661130Y86620D01*
X660660Y88290D01*
X660040Y89540D01*
X659110Y90580D01*
X657870Y91000D01*
G01X645470Y108020D02*
Y120540D01*
X643620Y118040D01*
G01Y108020D02*
X647330D01*
G01X659730D02*
Y120540D01*
X654000Y111570D01*
X661750D01*
G01X642070Y140050D02*
X643000Y138590D01*
X644240Y137760D01*
X645630Y137550D01*
X646870Y137760D01*
X648110Y138800D01*
X648880Y140050D01*
X649040Y141310D01*
X648730Y142770D01*
X647640Y143810D01*
X646560Y144230D01*
X645170D01*
G01X646560D02*
X647490Y144850D01*
X648260Y145900D01*
X648570Y147150D01*
X648260Y148400D01*
X647490Y149440D01*
X646090Y150070D01*
X644700Y149860D01*
X643310Y149030D01*
G01X655240Y139010D02*
X656330Y137970D01*
X657570Y137550D01*
X658800Y137970D01*
X659890Y139220D01*
X660660Y141100D01*
X660970Y142980D01*
Y145270D01*
X660660Y147150D01*
X659890Y148820D01*
X658960Y149650D01*
X657870Y150070D01*
X656640Y149650D01*
X655710Y148820D01*
X655090Y147570D01*
X654780Y145900D01*
X655090Y144440D01*
X655860Y142980D01*
X656790Y142140D01*
X657870Y141930D01*
X659110Y142350D01*
X660040Y143390D01*
X660970Y145270D01*
G01X653530Y-157800D02*
Y-145280D01*
X647800Y-154250D01*
X655550D01*
G01X648730Y-117830D02*
X649660Y-116570D01*
X650750Y-115950D01*
X651980Y-115740D01*
X653530Y-116160D01*
X654620Y-117200D01*
X654930Y-118450D01*
X654770Y-119700D01*
X654150Y-120750D01*
X651060Y-122830D01*
X649660Y-124300D01*
X648730Y-126380D01*
X648420Y-128260D01*
X654930D01*
G01X648730Y-88300D02*
X649660Y-87040D01*
X650750Y-86420D01*
X651980Y-86210D01*
X653530Y-86630D01*
X654620Y-87670D01*
X654930Y-88920D01*
X654770Y-90170D01*
X654150Y-91220D01*
X651060Y-93300D01*
X649660Y-94770D01*
X648730Y-96850D01*
X648420Y-98730D01*
X654930D01*
G01X648730Y-58760D02*
X649660Y-57500D01*
X650750Y-56880D01*
X651980Y-56670D01*
X653530Y-57090D01*
X654620Y-58130D01*
X654930Y-59380D01*
X654770Y-60630D01*
X654150Y-61680D01*
X651060Y-63760D01*
X649660Y-65230D01*
X648730Y-67310D01*
X648420Y-69190D01*
X654930D01*
G54D11*
X-167320Y-85830D03*
X167320D03*
X251760Y-92470D03*
G54D12*
X-171260Y-72050D03*
Y-44490D03*
Y-33070D03*
Y-5510D03*
Y5910D03*
Y33470D03*
Y44880D03*
Y72440D03*
Y108270D03*
Y135830D03*
X251760Y-33400D03*
G54D13*
X-167320Y92130D03*
X167320D03*
X251760Y-122000D03*
G54D14*
X-160230Y-135070D03*
Y-121490D03*
X-132050Y-135070D03*
Y-121490D03*
X251760Y-151540D03*
G54D15*
X-156700Y-111000D03*
Y-100800D03*
X-146700Y-111000D03*
Y-100800D03*
X-131100Y133300D03*
X-121100D03*
X-111100D03*
X-101100D03*
X-32400Y134100D03*
X-22400D03*
X-12400D03*
X-2400D03*
X7600D03*
X91020Y1260D03*
X101020D03*
X141490Y130410D03*
X151020Y1260D03*
X151490Y130410D03*
X161490D03*
X171020Y1260D03*
X251760Y84740D03*
G54D16*
X-154010Y-126690D03*
X-138270D03*
X-101460Y116140D03*
X-91460D03*
X-70750D03*
X-60750D03*
X-40040D03*
X-30040D03*
X-9330D03*
X670D03*
X21380D03*
X31380D03*
X52090D03*
X62090D03*
X82800D03*
X92800D03*
X251760Y-62930D03*
Y114280D03*
G54D17*
X-151260Y-117940D03*
X-152500Y-88400D03*
X-143900Y2400D03*
X-136540Y-123460D03*
X-137700Y2500D03*
X-124900Y66600D03*
X-125000Y78600D03*
X-124900Y90600D03*
Y102000D03*
Y113100D03*
X-96100Y77000D03*
X-90600Y62700D03*
X-91300Y77300D03*
X-91600Y98200D03*
X-81300Y29600D03*
X-73000Y28400D03*
X-61600Y37600D03*
Y62300D03*
X-58050Y62450D03*
X-58350Y69950D03*
X-50100Y69500D03*
X-54120Y77380D03*
X-43200Y28600D03*
X-43300Y33000D03*
X-43800Y41950D03*
X-30500Y69700D03*
X-16200Y77000D03*
X-11200Y8300D03*
X-14000Y87300D03*
X3030Y67330D03*
Y90170D03*
X12330Y92730D03*
X16850Y41950D03*
X16520Y75520D03*
X21600Y39600D03*
X21550Y62450D03*
X26500Y37700D03*
X46580Y75520D03*
X103400Y75700D03*
X251760Y143810D03*
G54D18*
X-125990Y-81100D03*
Y-33070D03*
X-102360Y-25200D03*
X-78740Y-81100D03*
Y-33070D03*
X-59060Y-81100D03*
Y-33070D03*
X-35430Y-25200D03*
X-11810Y-81100D03*
Y-33070D03*
X7870Y-81100D03*
Y-33070D03*
X31500Y-25200D03*
X55120Y-81100D03*
Y-33070D03*
X74800Y-81100D03*
Y-33070D03*
X98430Y-25200D03*
X122050Y-81100D03*
Y-33070D03*
X251760Y-3860D03*
G54D19*
X-114170Y-125590D03*
X-94490D03*
X-74800D03*
X-55120D03*
X-35440D03*
X-15750D03*
X3940D03*
X23620D03*
X43310D03*
X62990D03*
X82670D03*
X102360D03*
X122040D03*
X141730D03*
X251760Y25670D03*
M02*
