G04 ================== begin FILE IDENTIFICATION RECORD ==================*
G04 Layout Name:  E:/san4ch/Sant4ch/Board/sanT_4ch.brd*
G04 Film Name:    PASTEMASK_TOP*
G04 File Format:  Gerber RS274X*
G04 File Origin:  Cadence Allegro 16.5-P002*
G04 Origin Date:  Sun Jun 18 14:22:40 2017*
G04 *
G04 Layer:  VIA CLASS/PASTEMASK_TOP*
G04 Layer:  PIN/PASTEMASK_TOP*
G04 Layer:  PACKAGE GEOMETRY/PASTEMASK_TOP*
G04 *
G04 Offset:    (0.0 0.0)*
G04 Mirror:    No*
G04 Mode:      Positive*
G04 Rotation:  0*
G04 FullContactRelief:  No*
G04 UndefLineWidth:     6.0*
G04 ================== end FILE IDENTIFICATION RECORD ====================*
%FSLAX35Y35*MOIN*%
%IR0*IPPOS*OFA0.00000B0.00000*MIA0B0*SFA1.00000B1.00000*%
%AMMACRO17*
4,1,40,-.0339,-.0374,
.0339,-.0374,
.034583,-.037334,
.035245,-.03715,
.035864,-.036853,
.036422,-.036454,
.036903,-.035964,
.037291,-.035398,
.037576,-.034773,
.037747,-.034108,
.0378,-.0335,
.0378,.0335,
.037734,.034183,
.03755,.034845,
.037253,.035464,
.036854,.036022,
.036364,.036503,
.035798,.036891,
.035173,.037176,
.034508,.037347,
.0339,.0374,
-.0339,.0374,
-.034583,.037334,
-.035245,.03715,
-.035864,.036853,
-.036422,.036454,
-.036903,.035964,
-.037291,.035398,
-.037576,.034773,
-.037747,.034108,
-.0378,.0335,
-.0378,-.0335,
-.037734,-.034183,
-.03755,-.034845,
-.037253,-.035464,
-.036854,-.036022,
-.036364,-.036503,
-.035798,-.036891,
-.035173,-.037176,
-.034508,-.037347,
-.0339,-.0374,
0.0*
%
%ADD17MACRO17*%
%ADD15O,.063X.0157*%
%ADD18O,.024X.0854*%
%ADD14R,.0591X.0315*%
%ADD12R,.0315X.0591*%
%ADD10R,.0157X.0551*%
%ADD11R,.0374X.0394*%
%ADD13R,.0394X.0374*%
%AMMACRO16*
4,1,40,-.0087,-.0374,
.0087,-.0374,
.009383,-.037334,
.010044,-.03715,
.010664,-.036854,
.011222,-.036455,
.011703,-.035965,
.012091,-.0354,
.012375,-.034775,
.012547,-.03411,
.0126,-.0335,
.0126,.0335,
.012534,.034183,
.01235,.034844,
.012054,.035464,
.011655,.036022,
.011165,.036503,
.0106,.036891,
.009975,.037175,
.00931,.037347,
.0087,.0374,
-.0087,.0374,
-.009383,.037334,
-.010044,.03715,
-.010664,.036854,
-.011222,.036455,
-.011703,.035965,
-.012091,.0354,
-.012375,.034775,
-.012547,.03411,
-.0126,.0335,
-.0126,-.0335,
-.012534,-.034183,
-.01235,-.034844,
-.012054,-.035464,
-.011655,-.036022,
-.011165,-.036503,
-.0106,-.036891,
-.009975,-.037175,
-.00931,-.037347,
-.0087,-.0374,
0.0*
%
%ADD16MACRO16*%
%LPD*%
G75*
G54D10*
X-148700Y-123460D03*
X-151260D03*
X-143580D03*
X-146140D03*
X-141020D03*
G54D11*
X-137450Y54400D03*
X-137650Y66600D03*
X-137350Y78500D03*
Y90400D03*
X-137450Y101800D03*
X-137550Y113400D03*
X-131150Y54400D03*
X-131350Y66600D03*
X-131050Y78500D03*
Y90400D03*
X-131150Y101800D03*
X-131250Y113400D03*
X-91650Y102900D03*
X-85350D03*
X-60750Y102500D03*
X-58550Y22500D03*
X-58750Y32400D03*
X-57950Y47800D03*
X-58050Y57100D03*
X-52250Y22500D03*
X-52450Y32400D03*
X-51650Y47800D03*
X-51750Y57100D03*
X-54450Y102500D03*
X-36650Y103400D03*
X-30350D03*
X-10950Y67100D03*
Y74800D03*
X-4650Y67100D03*
Y74800D03*
G54D12*
X-106300Y19010D03*
Y71020D03*
X-101300Y19010D03*
Y71020D03*
X-96300Y19010D03*
Y71020D03*
X-91300Y19010D03*
Y71020D03*
X-86300Y19010D03*
Y71020D03*
X-81300Y19010D03*
Y71020D03*
X-76300Y19010D03*
Y71020D03*
X-71300Y19010D03*
Y71020D03*
G54D13*
X-96400Y3650D03*
Y9950D03*
X-86300Y3950D03*
Y10250D03*
X-41200Y50350D03*
Y56650D03*
X-32700Y50250D03*
Y56550D03*
X-24200Y50250D03*
Y56550D03*
X-16000Y50150D03*
Y56450D03*
X-11700Y23550D03*
Y29850D03*
X-7800Y50150D03*
Y56450D03*
X-3200Y23550D03*
Y29850D03*
X600Y50150D03*
Y56450D03*
X59600Y84050D03*
Y90350D03*
X69600Y84050D03*
Y90350D03*
X79600Y84050D03*
Y90350D03*
X89600Y84050D03*
Y90350D03*
G54D14*
X-67800Y27520D03*
Y32520D03*
Y37520D03*
Y42520D03*
Y47520D03*
Y52520D03*
Y57520D03*
Y62520D03*
G54D15*
X-44840Y69700D03*
Y72260D03*
Y74820D03*
Y77380D03*
Y79940D03*
Y82500D03*
Y85060D03*
Y87610D03*
Y90170D03*
Y92730D03*
X-22000Y72260D03*
Y69700D03*
Y77380D03*
Y74820D03*
Y79940D03*
Y85060D03*
Y82500D03*
Y90170D03*
Y87610D03*
Y92730D03*
G54D16*
X-36710Y22400D03*
X-30800D03*
X-24890D03*
G54D17*
X-30800Y34400D03*
G54D18*
X11520Y10810D03*
Y29390D03*
X16480Y10810D03*
Y29390D03*
X16520Y49010D03*
Y67590D03*
X21520Y10810D03*
Y29390D03*
X21480Y49010D03*
Y67590D03*
X26480Y10810D03*
Y29390D03*
X26520Y49010D03*
Y67590D03*
X31520Y10810D03*
Y29390D03*
X31480Y49010D03*
Y67590D03*
X36480Y10810D03*
Y29390D03*
X36520Y49010D03*
Y67590D03*
X41520Y10810D03*
Y29390D03*
X41480Y49010D03*
Y67590D03*
X46480Y10810D03*
Y29390D03*
X46520Y49010D03*
Y67590D03*
X51480Y49010D03*
Y67590D03*
M02*
