G04 ================== begin FILE IDENTIFICATION RECORD ==================*
G04 Layout Name:  E:/san4ch/Sant4ch/Board/sanT_4ch.brd*
G04 Film Name:    SOLDRMSASK_TOP*
G04 File Format:  Gerber RS274X*
G04 File Origin:  Cadence Allegro 16.5-P002*
G04 Origin Date:  Sun Jun 18 14:22:40 2017*
G04 *
G04 Layer:  VIA CLASS/SOLDERMASK_TOP*
G04 Layer:  PIN/SOLDERMASK_TOP*
G04 Layer:  PACKAGE GEOMETRY/SOLDERMASK_TOP*
G04 Layer:  BOARD GEOMETRY/SOLDERMASK_TOP*
G04 *
G04 Offset:    (0.0 0.0)*
G04 Mirror:    No*
G04 Mode:      Positive*
G04 Rotation:  0*
G04 FullContactRelief:  No*
G04 UndefLineWidth:     6.0*
G04 ================== end FILE IDENTIFICATION RECORD ====================*
%FSLAX35Y35*MOIN*%
%IR0*IPPOS*OFA0.00000B0.00000*MIA0B0*SFA1.00000B1.00000*%
%ADD11C,.1024*%
%ADD17R,.0413X.0433*%
%ADD10C,.063*%
%ADD22R,.0433X.0413*%
%ADD14C,.0236*%
%ADD24R,.063X.0354*%
%ADD20R,.0354X.063*%
%ADD12O,.0433X.0591*%
%ADD25O,.0709X.0236*%
%ADD21R,.063X.063*%
%ADD16C,.0709*%
%ADD28O,.0319X.0933*%
%ADD19C,.0827*%
%ADD15R,.0177X.0571*%
%AMMACRO27*
4,1,44,-.0362,-.0394,
.0362,-.0394,
.036888,-.039347,
.037557,-.039174,
.038186,-.038889,
.038755,-.038498,
.039248,-.038015,
.03965,-.037453,
.039948,-.03683,
.040133,-.036165,
.0402,-.035478,
.0402,-.0354,
.0402,.0354,
.040147,.036088,
.039974,.036757,
.039689,.037386,
.039298,.037955,
.038815,.038448,
.038253,.03885,
.03763,.039148,
.036965,.039333,
.036278,.0394,
.0362,.0394,
-.0362,.0394,
-.036888,.039347,
-.037557,.039174,
-.038186,.038889,
-.038755,.038498,
-.039248,.038015,
-.03965,.037453,
-.039948,.03683,
-.040133,.036165,
-.0402,.035478,
-.0402,.0354,
-.0402,-.0354,
-.040147,-.036088,
-.039974,-.036757,
-.039689,-.037386,
-.039298,-.037955,
-.038815,-.038448,
-.038253,-.03885,
-.03763,-.039148,
-.036965,-.039333,
-.036278,-.0394,
-.0362,-.0394,
0.0*
%
%ADD27MACRO27*%
%ADD18C,.0886*%
%ADD13R,.0709X.0709*%
%ADD23R,.0827X.0827*%
%AMMACRO26*
4,1,44,-.0102,-.0394,
.0102,-.0394,
.010888,-.039348,
.011556,-.039177,
.012184,-.038892,
.012753,-.038503,
.013246,-.038021,
.013648,-.03746,
.013946,-.036839,
.014132,-.036175,
.0142,-.035488,
.0142,-.0354,
.0142,.0354,
.014148,.036088,
.013977,.036756,
.013692,.037384,
.013303,.037953,
.012821,.038446,
.01226,.038848,
.011639,.039146,
.010975,.039332,
.010288,.0394,
.0102,.0394,
-.0102,.0394,
-.010888,.039348,
-.011556,.039177,
-.012184,.038892,
-.012753,.038503,
-.013246,.038021,
-.013648,.03746,
-.013946,.036839,
-.014132,.036175,
-.0142,.035488,
-.0142,.0354,
-.0142,-.0354,
-.014148,-.036088,
-.013977,-.036756,
-.013692,-.037384,
-.013303,-.037953,
-.012821,-.038446,
-.01226,-.038848,
-.011639,-.039146,
-.010975,-.039332,
-.010288,-.0394,
-.0102,-.0394,
0.0*
%
%ADD26MACRO26*%
%ADD29C,.006*%
G75*
%LPD*%
G75*
G54D10*
X-181100Y-67130D03*
Y-49410D03*
Y-28150D03*
Y-10430D03*
Y10830D03*
Y28550D03*
Y49800D03*
Y67520D03*
Y113190D03*
Y130910D03*
X-91460Y116140D03*
X-60750D03*
X-30040D03*
X670D03*
X31380D03*
X62090D03*
X92800D03*
G54D20*
X-106300Y19010D03*
Y71020D03*
X-101300Y19010D03*
Y71020D03*
X-96300Y19010D03*
Y71020D03*
X-91300Y19010D03*
Y71020D03*
X-86300Y19010D03*
Y71020D03*
X-81300Y19010D03*
Y71020D03*
X-76300Y19010D03*
Y71020D03*
X-71300Y19010D03*
Y71020D03*
G54D11*
X-171260Y-72050D03*
Y-44490D03*
Y-33070D03*
Y-5510D03*
Y5910D03*
Y33470D03*
Y44880D03*
Y72440D03*
Y108270D03*
Y135830D03*
G54D21*
X-101460Y116140D03*
X-70750D03*
X-40040D03*
X-9330D03*
X21380D03*
X52090D03*
X82800D03*
G54D12*
X-160230Y-135070D03*
Y-121490D03*
X-132050Y-135070D03*
Y-121490D03*
G54D13*
X-156700Y-111000D03*
Y-100800D03*
X-131100Y133300D03*
X-32400Y134100D03*
X91020Y1260D03*
X101020D03*
X141490Y130410D03*
X151020Y1260D03*
X171020D03*
G54D22*
X-96400Y3650D03*
Y9950D03*
X-86300Y3950D03*
Y10250D03*
X-41200Y50350D03*
Y56650D03*
X-32700Y50250D03*
Y56550D03*
X-24200Y50250D03*
Y56550D03*
X-16000Y50150D03*
Y56450D03*
X-11700Y23550D03*
Y29850D03*
X-7800Y50150D03*
Y56450D03*
X-3200Y23550D03*
Y29850D03*
X600Y50150D03*
Y56450D03*
X59600Y84050D03*
Y90350D03*
X69600Y84050D03*
Y90350D03*
X79600Y84050D03*
Y90350D03*
X89600Y84050D03*
Y90350D03*
G54D23*
X-74800Y-125590D03*
X-15750D03*
X43310D03*
X102360D03*
X141730D03*
G54D14*
X-154010Y-126690D03*
X-138270D03*
G54D15*
X-148700Y-123460D03*
X-151260D03*
X-143580D03*
X-146140D03*
X-141020D03*
G54D24*
X-67800Y27520D03*
Y32520D03*
Y37520D03*
Y42520D03*
Y47520D03*
Y52520D03*
Y57520D03*
Y62520D03*
G54D16*
X-146700Y-111000D03*
Y-100800D03*
X-121100Y133300D03*
X-111100D03*
X-101100D03*
X-22400Y134100D03*
X-12400D03*
X-2400D03*
X7600D03*
X151490Y130410D03*
X161490D03*
G54D25*
X-44840Y69700D03*
Y72260D03*
Y74820D03*
Y77380D03*
Y79940D03*
Y82500D03*
Y85060D03*
Y87610D03*
Y90170D03*
Y92730D03*
X-22000Y72260D03*
Y69700D03*
Y77380D03*
Y74820D03*
Y79940D03*
Y85060D03*
Y82500D03*
Y90170D03*
Y87610D03*
Y92730D03*
G54D26*
X-36710Y22400D03*
X-30800D03*
X-24890D03*
G54D17*
X-137450Y54400D03*
X-137650Y66600D03*
X-137350Y78500D03*
Y90400D03*
X-137450Y101800D03*
X-137550Y113400D03*
X-131150Y54400D03*
X-131350Y66600D03*
X-131050Y78500D03*
Y90400D03*
X-131150Y101800D03*
X-131250Y113400D03*
X-91650Y102900D03*
X-85350D03*
X-60750Y102500D03*
X-58550Y22500D03*
X-58750Y32400D03*
X-57950Y47800D03*
X-58050Y57100D03*
X-52250Y22500D03*
X-52450Y32400D03*
X-51650Y47800D03*
X-51750Y57100D03*
X-54450Y102500D03*
X-36650Y103400D03*
X-30350D03*
X-10950Y67100D03*
Y74800D03*
X-4650Y67100D03*
Y74800D03*
G54D18*
X-125990Y-81100D03*
Y-33070D03*
X-102360Y-25200D03*
X-78740Y-81100D03*
Y-33070D03*
X-59060Y-81100D03*
Y-33070D03*
X-35430Y-25200D03*
X-11810Y-81100D03*
Y-33070D03*
X7870Y-81100D03*
Y-33070D03*
X31500Y-25200D03*
X55120Y-81100D03*
Y-33070D03*
X74800Y-81100D03*
Y-33070D03*
X98430Y-25200D03*
X122050Y-81100D03*
Y-33070D03*
G54D27*
X-30800Y34400D03*
G54D19*
X-114170Y-125590D03*
X-94490D03*
X-55120D03*
X-35440D03*
X3940D03*
X23620D03*
X62990D03*
X82670D03*
X122040D03*
G54D28*
X11520Y10810D03*
Y29390D03*
X16480Y10810D03*
Y29390D03*
X16520Y49010D03*
Y67590D03*
X21520Y10810D03*
Y29390D03*
X21480Y49010D03*
Y67590D03*
X26480Y10810D03*
Y29390D03*
X26520Y49010D03*
Y67590D03*
X31520Y10810D03*
Y29390D03*
X31480Y49010D03*
Y67590D03*
X36480Y10810D03*
Y29390D03*
X36520Y49010D03*
Y67590D03*
X41520Y10810D03*
Y29390D03*
X41480Y49010D03*
Y67590D03*
X46480Y10810D03*
Y29390D03*
X46520Y49010D03*
Y67590D03*
X51480Y49010D03*
Y67590D03*
G54D29*
G01X-157090Y92130D02*
G03I-10233J-4D01*
G01X177560D02*
G03I-10237J-4D01*
M02*
